<svg xmlns="http://www.w3.org/2000/svg" viewBox="0 0 35 35"><path fill="#BABBBD" d="M17.5 34v-2c8 0 14.5-6.5 14.5-14.5S25.5 3 17.5 3 3.1 9.6 3.1 17.6h-2c0-9.1 7.4-16.5 16.5-16.5 9 0 16.4 7.4 16.4 16.5S26.6 34 17.5 34z"/><path fill="#BABBBD" d="M17.5 27.1c-2.5 0-4.9-1-6.7-2.8l1.4-1.4c2.9 2.9 7.7 2.9 10.6 0l1.4 1.4c-1.7 1.8-4.1 2.8-6.7 2.8zM.3 14.7h3.5v5.9H.3zM14.6 31.3h5.9v3.5h-5.9zM31.3 14.7h3.5v5.9h-3.5z"/><circle fill="#BABBBD" cx="11.5" cy="11.6" r="1.4"/><circle fill="#BABBBD" cx="23.5" cy="11.6" r="1.4"/></svg>