<svg xmlns="http://www.w3.org/2000/svg" viewBox="0 0 73.5 29.1"><path fill-rule="evenodd" clip-rule="evenodd" fill="#6E6F72" d="M73.5 0v3.4H0V1.7 0h73.5zM29.1 6.1h3.5c.2 0 .3.1.4.2.3.4.7.9.9 1.3.1.2.3.4.5.6.1.2.3.4.4.7.3.4.6.9.9 1.3.4.5.7 1 1.1 1.6.4.6.8 1.1 1.2 1.7.3.4.6.8.9 1.3.2.3.5.7.7 1.1 0 0 .1.1.2.1V6.2h3.4V23h-2.4c-.2-.2-.5-.4-.6-.7-.1-.3-.4-.4-.5-.7-.5-.7-1.1-1.4-1.6-2.1-.3-.4-.6-.8-.9-1.1-.2-.3-.5-.6-.7-.9-.1-.1-.2-.2-.3-.4-.1-.1-.2-.2-.2-.3-.4-.5-.9-1.1-1.3-1.7-.2-.3-.5-.6-.7-.9-.3-.5-.7-.9-1.2-1.4V15c.2.3.1.6.1.9v7.2h-3.7c-.1-5.8-.1-11.4-.1-17zM0 29.1v-1.5c0-.2.1-.3.3-.3H73.4v1.9c-24.4-.1-48.9-.1-73.4-.1zM58.4 17.1h-9.2c0 .3-.1.6 0 .9.1.4.1.8.4 1.1.2.3.4.6.7.8.6.4 1.3.6 2 .7.3 0 .6.1.9.1.8 0 1.5-.2 2.3-.4.8-.3 1.5-.7 2.2-1.2.2-.1.4-.4.6-.6-.1.8.2 1.4.1 2.1v.6c-.5.6-1.2.9-1.9 1.1-.6.2-1.1.3-1.7.4-.3.1-.6 0-.8.1-.5.2-1.1.1-1.6.1-.4 0-.8-.1-1.2-.1-.2-.2-.5 0-.7-.2-.2-.1-.5-.1-.7-.1-.3-.1-.7-.2-1-.3-.3-.2-.7-.2-1-.5-.3-.2-.7-.4-.9-.6-.3-.3-.6-.6-.8-1-.2-.5-.5-.9-.6-1.5-.1-.2-.1-.5-.1-.7-.2-.5-.1-1-.1-1.5 0-1 .3-1.9.7-2.8.3-.7.8-1.3 1.3-1.8s.9-.9 1.5-1.2c.4-.2.9-.3 1.4-.5.9-.3 1.9-.2 2.8-.2.5 0 .9.2 1.4.3.9.3 2.1 1.1 2.7 1.9.3.5.6 1 .8 1.5.2.5.4 1.1.5 1.7.1.3.1.6.2.9-.1.2-.2.5-.2.9zm-8.9-2.3h5.3c0-.4-.1-.7-.3-1-.2-.4-.5-.8-.9-1l-.6-.3c-.4-.2-.9-.1-1.4-.1h-.1c-.6.2-1.1.5-1.5 1-.3.4-.5.8-.5 1.4zM60.4 12.8h-1.8v-1.1c.4-.4.8-.8 1.1-1.3.5-.6 1-1.1 1.5-1.7.4-.4.8-.8 1.2-1.3.4-.5.9-1 1.4-1.5.1-.2.3-.2.5-.2v4.1H69v2.8h-4.7v4.8c0 .6 0 1.2.2 1.9.2.3.5.3.9.4.5.1 1 .1 1.5.1.2 0 .4-.1.6-.1.2 0 .4 0 .7-.1.3-.1.5-.3.8-.4.1.5 0 1 0 1.6 0 .5.1 1-.1 1.5-.4 0-.7.2-1.1.2-.1.1-.3.1-.5.1s-.3.1-.5.1-.4.1-.6.1h-.5c-.3.1-.5.1-.8.1h-.4c-.3-.1-.7-.1-1-.2-.3-.2-.7-.3-1-.5-.2-.2-.4-.4-.7-.6-.5-.5-.9-.9-1.3-1.5-.2-.4-.4-.7-.4-1.1v-5.8c.3 0 .3-.2.3-.4zM3.2 6.1h4.3v16.8h-4c-.3 0-.3-.1-.3-.3v-.1-16-.4zM12 8.7c.2.5.3.9.5 1.3h1.4c-.2.2-.3.3-.5.4-.2.1-.3.2-.5.3-.2.2-.2.1-.1.4.1.2.1.4.2.6v.4c-.3.1-.3-.2-.5-.3-.2 0-.3-.2-.5-.4-.3.2-.7.5-1 .8v-.4l.1-.1c.1-.2.2-.5.2-.7 0-.2-.4-.3-.6-.4-.1-.1-.3-.2-.4-.3v-.1h.9c.3 0 .3 0 .5-.4.1-.4.2-.7.3-1.1zM26.5 12.3c-.4-.3-.8-.6-1.2-.8-.3.3-.7.5-1 .8-.1-.3.1-.5.1-.7 0-.1 0-.1.1-.2.1-.3.1-.4-.2-.6-.2-.2-.4-.4-.7-.5v-.1h1.3c.1-.4.2-.9.4-1.3.2.5.3.9.5 1.3h1.3c-.1.3-.3.3-.5.5s-.4.3-.6.4c.2.2.3.6.5 1.2zM21.4 19.5c-.4-.3-.8-.6-1.1-.8-.4.2-.7.5-1.1.8.1-.3.2-.5.2-.7.1-.2.1-.4.1-.7-.3-.3-.7-.5-1.1-.8h1.4c.1-.4.3-.8.4-1.2.2.4.4.8.5 1.2H22c-.1.3-.3.3-.5.5-.2.1-.3.3-.5.4.1.4.2.8.4 1.3zM23 20.5h1.4c-.4.3-.7.6-1.1.8.1.4.2.8.4 1.3-.2-.1-.4-.3-.5-.4-.1 0-.1-.1-.2-.2-.4-.3-.4-.3-.7 0-.2.2-.5.3-.8.5.1-.4.2-.7.3-1 .1-.2.1-.3-.1-.4-.3-.2-.6-.5-1-.7.4-.1.9 0 1.3 0 .1-.4.3-.9.5-1.3.2.6.4 1 .5 1.4zM15.8 22.6c-.3-.2-.7-.5-1-.7-.4.1-.7.6-1.2.7.1-.4.3-.8.4-1.3-.3-.3-.7-.5-1.1-.8h1.2c.1 0 .3 0 .3-.2.1-.4.2-.7.3-1.2.3.4.2.9.5 1.3h1.3c-.4.3-.8.6-1.1.8.2.6.4 1 .4 1.4.1 0 0 0 0 0zM18.7 20.7c.1.4.2.7.3 1.1 0 .1.1.2.3.2h1.2c-.2.2-.4.3-.5.4-.2.1-.3.2-.5.4 0 .4.3.9.4 1.4-.2-.1-.3-.2-.5-.3-.1-.1-.2-.2-.3-.2-.3-.2-.4-.2-.6 0-.2.2-.5.3-.7.5h-.1c.1-.4.3-.8.4-1.2-.3-.3-.7-.5-1.1-.8h1.3c.1-.6.2-1.1.4-1.5zM21.8 7.8c-.3-.2-.7-.5-1-.7h1.1c.3 0 .3 0 .4-.3l.3-.9c.1.1.3.7.4 1.2h1.3c-.1.2-.2.2-.3.3-.1.1-.2.2-.4.3-.1.1-.2.2-.3.2.1.4.3.8.4 1.3-.5-.2-.7-.6-1.2-.7-.3.2-.7.5-1 .7 0-.5.4-.9.3-1.4zM15.9 9.2c-.2-.2-.4-.3-.6-.4l-.1-.1c-.4-.4-.5-.4-.9 0-.2.2-.4.3-.7.5.1-.5.3-.9.4-1.3-.1-.1-.3-.3-.5-.4-.2-.1-.3-.2-.5-.4.4-.1.8 0 1.3 0 .1-.4.3-.8.5-1.3.2.5.3.9.5 1.3h1.3c-.4.3-.7.6-1.1.8.1.5.2.9.4 1.3zM26.3 12.6c.3.5.3 1 .6 1.4h1.2c-.4.3-.7.5-1 .8.1.4.3.8.4 1.3-.5-.2-.7-.6-1.1-.8-.4.3-.7.5-1.1.8.1-.4.2-.7.3-1 .1-.3.1-.3-.2-.5-.2-.2-.5-.4-.7-.6.4-.1.8 0 1.2 0 .1-.4.3-.9.4-1.4zM26 25.9c-.3-.3-.6-.5-.9-.7-.1-.1-.2-.1-.3 0-.2.1-.4.3-.6.4-.1.1-.2.1-.4.2.2-.5.3-.8.4-1.3-.3-.3-.7-.5-1.1-.8h1.4c.1-.4.3-.9.4-1.3.3.4.2 1 .5 1.3h1.3c-.2.2-.4.3-.6.5-.2.1-.4.2-.5.3.1.5.3.9.4 1.4zM12.1 16.1c-.4-.3-.7-.5-1.1-.8-.4.3-.7.5-1.2.9.1-.4.3-.8.4-1.1.1-.3.1-.3-.2-.5-.3-.2-.5-.4-.8-.6h1.3c.2-.5.3-.9.5-1.4.2.5.3.9.5 1.4h1.3c-.3.3-.6.5-.9.7-.2.1-.1.2-.1.3.1.3.2.7.3 1.1 0-.1 0 0 0 0zM19.8 8.4c-.4-.3-.7-.5-1.1-.8-.4.3-.7.5-1.2.8.1-.3.2-.6.3-.8.2-.6.2-.6-.2-.9-.2-.1-.4-.3-.6-.4.4-.1.9 0 1.3 0 .2-.5.3-.9.5-1.4.2.5.3.9.5 1.4h1.3c-.4.2-.6.5-1 .7 0 0-.1.2 0 .3 0 .3.1.7.2 1.1 0-.1 0 0 0 0zM12.5 17.8h1.2c-.4.3-.7.5-1 .8.1.4.2.8.4 1.3-.4-.3-.8-.5-1.1-.8-.4.3-.7.5-1.1.8.1-.4.2-.7.3-1 .1-.1.1-.2.1-.4 0-.1-.1-.1-.2-.2-.3-.2-.5-.4-.7-.6.3-.1.5 0 .8 0 .2 0 .3.1.5-.1.1-.1.2-.2.2-.4 0-.3.2-.5.2-.9.1.5 0 1.1.4 1.5zM25.4 16.4c.2.5.3.9.5 1.4h1.3c-.4.3-.7.5-1.1.7.1.4.2.8.3 1.3-.4-.3-.7-.5-1.1-.8-.3.2-.6.5-1 .7-.1-.5.3-.9.3-1.3-.3-.2-.7-.5-1-.7h1.3c.2-.4.3-.8.5-1.3z"/></svg>