<svg xmlns="http://www.w3.org/2000/svg" viewBox="0 0 105.5 65"><path fill="#FFF" d="M97.4 8.1H81.2v40.5h8.1V32.5h16.2V8.1h-8.1zm0 16.3h-8.1v-8.1h8.1v8.1zM32.5 16.2V8.1h-8.1V0h-8.2v40.6H32.5v-8.1h-8.1V16.2M0 8.1h8.1v8.1H0zM0 24.4h8.1v16.2H0zM64.9 8.1H73v8.1h-8.1zM64.9 24.4H73v16.2h-8.1z"/><g><path fill="#FFF" d="M40.6 16.2h16.2v8.1H40.6z"/></g><g><path fill="#FFF" d="M0 62.5v-5.7h.7v4.7l3.8-4.7h.7v5.7h-.8v-4.7L.6 62.5H0zM11.4 59.9H7.7v2.6h-.6v-5.7h.7v2.5h3.7v-2.5h.5v5.7h-.7v-2.6zM13.2 56.8h5.2v.7h-2.3v5h-.7v-5h-2.3v-.7zM24 61.8c-.5.5-1.3.8-2.1.8-1.8 0-3-1.2-3-2.9 0-1.6 1-2.9 2.9-2.9 1.5 0 2.6 1 2.6 2.6v.5h-4.7c.1 1.4 1 2.2 2.3 2.2.8 0 1.4-.3 1.8-.7l.2.4zm-4.4-2.5h4.1c0-1.2-.8-1.9-2-1.9-1.2-.1-2 .7-2.1 1.9zM29.6 57.5h-2.4l-.1 1.2c-.2 3.3-1.2 3.8-2 3.8l-.1-.6c.4 0 1.3-.3 1.5-3.3l.1-1.8h3.7v5.7h-.7v-5zM36.3 57.5h-2.4l-.1 1.2c-.2 3.3-1.2 3.8-2 3.8l-.1-.6c.4 0 1.3-.3 1.5-3.3l.1-1.8H37v5.7h-.7v-5zM43.6 61.8c-.5.5-1.3.8-2.1.8-1.8 0-3-1.2-3-2.9 0-1.6 1-2.9 2.9-2.9 1.5 0 2.6 1 2.6 2.6v.5h-4.7c0 1.4 1 2.2 2.3 2.2.8 0 1.4-.3 1.8-.7l.2.4zm-4.4-2.5h4.1c0-1.2-.8-1.9-2-1.9-1.2-.1-2 .7-2.1 1.9zM45.5 56.8h.7v5.7h-.7v-5.7zm1.8 2.7l3 3h-.9l-2.9-2.9 2.7-2.7h.8l-2.7 2.6zM50.8 56.8H56v.7h-2.3v5H53v-5h-2.3v-.7zM57 58.8h2.9v.6H57v-.6zM66.2 57.4h-3.6v5h-.7v-5.7h4.9v5.7h-.7v-5zM68.8 57.2c.5-.3 1.1-.5 1.8-.5 1.6 0 2.1.8 2.1 2.3v3.5H72v-.9c-.4.5-.9.9-1.9.9-1 0-1.8-.7-1.8-1.7 0-1.1.9-1.8 2.2-1.8.5 0 1.1.1 1.5.4 0-1.3-.1-2.2-1.5-2.2-.7 0-1.1.2-1.6.4l-.1-.4zm3.3 3.9v-.9c-.4-.3-.9-.5-1.5-.5-.7 0-1.5.4-1.5 1.2 0 .7.6 1.1 1.3 1.1.9-.1 1.4-.5 1.7-.9zM74.6 56.8h.7v.8c.4-.5 1.3-.9 2.1-.9 1.6 0 2.6 1.2 2.6 2.9s-1.1 3-2.9 3c-.7 0-1.3-.1-1.8-.5V65h-.7v-8.2zm.7 1.4v3.3c.6.4 1.2.5 1.8.5 1.4 0 2.3-1 2.3-2.4 0-1.3-.8-2.3-2.1-2.3-.9 0-1.7.4-2 .9zM80.5 56.8h5.2v.7h-2.3v5h-.7v-5h-2.3v-.7zM91.2 59.9h-3.7v2.6h-.7v-5.7h.7v2.5h3.7v-2.5h.7v5.7h-.7v-2.6zM98.5 61.8c-.5.5-1.3.8-2.1.8-1.8 0-3-1.2-3-2.9 0-1.6 1-2.9 2.9-2.9 1.5 0 2.6 1 2.6 2.6v.5h-4.7c.1 1.4 1 2.2 2.3 2.2.8 0 1.4-.3 1.8-.7l.2.4zm-4.4-2.5h4.1c0-1.2-.8-1.9-2-1.9-1.3-.1-2 .7-2.1 1.9zM100.4 56.8h.7v.8c.4-.5 1.3-.9 2.1-.9 1.6 0 2.6 1.2 2.6 2.9s-1.1 3-2.9 3c-.7 0-1.3-.1-1.8-.5V65h-.7v-8.2zm.6 1.4v3.3c.6.4 1.2.5 1.8.5 1.4 0 2.3-1 2.3-2.4 0-1.3-.8-2.3-2.1-2.3-.9 0-1.6.4-2 .9z"/></g></svg>