<svg xmlns="http://www.w3.org/2000/svg" viewBox="0 0 42 16"><g fill-rule="evenodd" clip-rule="evenodd" fill="#FFF"><path d="M37.7.3c0 .1.1.2.1.2 1-.1 1.6.6 2.4 1 .2.1.3.3.4.5.5 1 1 2.1.9 3.3-.1.7 0 1.4 0 2.1.1 2.5-2.2 4.7-4.7 4.7H32V.2c1.9.1 3.8.1 5.7.1zm-.4 10.1c.5-.6 1.1-1.2 1.4-1.9.3-.8.4-1.7.4-2.5 0-.6-.2-1.3-.4-1.9-.5-1.5-1.2-2-2.8-2.1h-1.5v8.2l.1.1c.9.1 1.8.1 2.8.1zM14.9 15.7c.2-.5.4-1 .5-1.6.1-.4.2-.9.4-1.3.2-.6-.5-.6-.6-.9l-.9-2.7c-.4-1.4-.8-2.7-1.3-4-.2-.4-.1-.7-.2-1.2.3 0 .7 0 1.1-.1.8 2.3 1.5 4.6 2.4 7.2.3-1 .6-1.6.8-2.2.4-1.5 1.1-2.8 1.3-4.3 0-.2.1-.4.3-.5.3-.1.7-.2 1-.3.5.7 0 1.3-.2 1.8-1.2 3.2-2.3 6.5-3.3 9.7 0 .1-.1.2-.2.4h-1.1zM8.7.9h1.8l.1.1v11.1H9.5V3.5c-.2.1-.5.2-.6.3-.4 1.1-.8 2.3-1.2 3.5-.4 1.1-.9 2.2-1.3 3.4H4.3c-.9-2.5-1.9-5-2.8-7.4h-.2v8.8H.1V.9H2c1.1 2.8 2.1 5.7 3.2 8.6h.3c.3-1.3.9-2.6 1.4-3.9C7.5 4 8 2.4 8.7.9zM21.3 11.4l.3-.3c.3-1 .3-1 1.4-.8 1.1.1 2.2 0 3.2 0l1-1V7.5c-.8-1.2-2.1-1-3.5-1V5.1c.8-.8 1.7-1.7 2.8-2.7h-4.6V.6h6.6c.5 0 .7.3.8.7.1.2.1.4.2.6l-3 3c.4.2.6.4.9.5 1 .2 1.5 1 2.2 1.6v2.1c.1 1.2-.6 1.9-1.4 2.4-.6.4-1.3.6-2.1.7-.7.2-1.3.1-2-.1s-1.5-.2-2.2-.4c-.2.1-.3-.1-.6-.3z"/></g></svg>