<svg xmlns="http://www.w3.org/2000/svg" viewBox="0 0 108.9 13.6"><path fill-rule="evenodd" clip-rule="evenodd" fill="#6E6F72" d="M10.7.1h3.8c1.9 0 3.5.6 4.8 1.9 1.1 1 1.7 2.3 2 3.8.2 1.4.1 2.7-.6 3.9-1.1 2.1-2.8 3.4-5.2 3.8-.3 0-.7.1-1 .1H6.7c-3 0-5.8-2-6.5-5.1C-.4 6.1.2 4 2 2.1 3.3.8 4.9.1 6.7.1h4zm-.1 11.1h3.9c.4 0 .7-.1 1.1-.1 1.9-.5 3.4-2.3 3.2-4.5-.1-1.7-1-2.8-2.4-3.6-.7-.4-1.5-.5-2.4-.5H7.3c-.4 0-.8 0-1.1.1-1 .2-1.8.6-2.5 1.4-1.4 1.4-1.5 3.8-.4 5.4.9 1.2 2.1 1.9 3.6 1.9 1.3 0 2.5-.1 3.7-.1zM105 11.3l-1.5 2.4h-8.2c-1.5 0-2.9-.5-4.1-1.4-1.2-.9-2-2.2-2.4-3.6-.9-3.3 1-6.8 4.1-7.9.8-.3 1.5-.4 2.4-.4h9.4c-.1.1-.1.2-.2.3-.3.5-.7 1-1 1.5-.3.5-.2.4-.7.4H96c-.7 0-1.4.1-2.1.4-1.2.6-2 1.5-2.5 2.8.1.1.3.1.5.1H104l-.3.6-.9 1.5c-.2.3-.3.3-.7.3H91.4c.3 1 .9 1.8 1.7 2.4.8.5 1.6.8 2.6.8h8.8c.1-.2.3-.2.5-.2zM26.7 6.9h7.2c1.3 0 2.2-.9 2.3-2.2 0-1.3-1.1-2.2-1.9-2.2-.4 0-.7-.1-1.1-.1h-7.8v11.1h-2.5V.1H34.1c1.2 0 2.2.3 3.1 1.1 1 .8 1.5 1.9 1.6 3.2.1 1.4-.4 2.6-1.5 3.6-.7.7-1.6 1.1-2.6 1.2-.4 0-.8 0-1.2.1h-.4c1.7 1.5 3.4 2.9 5.2 4.3h-2.6c-.4 0-.8.1-1.1-.1-.3-.1-.6-.5-.9-.7-1.9-1.7-3.9-3.4-5.8-5.1-.6-.2-.8-.5-1.2-.8zM53.9 11.2h-6.6c-.3 0-.5-.1-.7-.4-.3-.6-.7-1.1-1.1-1.7-.1-.1-.1-.2-.2-.3h6.8c-.1-.3-3.1-5.3-3.6-5.9-2.2 3.5-4.5 7.1-6.7 10.6h-3c.4-.7.9-1.4 1.3-2 2.2-3.5 4.4-6.9 6.7-10.4.1-.2.3-.4.5-.6.9-.9 2.3-.6 2.9.3.8 1.2 1.6 2.4 2.3 3.7 1.9 3 3.8 6 5.7 8.9 0 .1.1.1.1.2h-3c-.5-.8-.9-1.6-1.4-2.4zM73.3 11.3l-1.5 2.4h-8.1c-1.9 0-3.6-.8-4.9-2.2-1-1-1.5-2.2-1.7-3.6-.2-1.9.2-3.6 1.4-5.1.9-1.2 2.1-1.9 3.5-2.3.5-.1 1-.2 1.5-.2h9.6c-.5.8-1 1.5-1.5 2.3h-7.3c-.5 0-.9 0-1.4.1-1.8.4-3.1 1.9-3.3 3.7-.3 2.2 1.1 4.3 3.2 4.8.4.1.9.1 1.3.1h9.2zM74.6.2h2.5c.1.3 0 .7 0 1v10h12.1c0 .1-.1.2-.1.3-.4.6-.8 1.3-1.2 1.9-.1.1-.2.2-.4.2H76c-.3 0-.6 0-.9-.2-.3-.2-.5-.5-.5-1V12 .6.2zM107.3 3c-.7.1-1.5-.6-1.5-1.5 0-1 .8-1.5 1.5-1.5.8 0 1.5.7 1.5 1.5 0 1-.8 1.6-1.5 1.5zm1.3-1.5c0-.7-.6-1.2-1.2-1.2s-1.2.6-1.2 1.2c0 .7.6 1.2 1.2 1.2.6.1 1.2-.5 1.2-1.2z"/><path fill-rule="evenodd" clip-rule="evenodd" fill="#6E6F72" d="M108 2.3c-.2.1-.3 0-.4-.1 0-.1-.1-.2-.2-.3-.1-.1-.1-.2-.3-.1v.6h-.2V.7h.6c.2 0 .4.1.5.3.1.2.1.4-.1.6l-.1.1c0 .2.1.4.2.6zm-.9-.9c.2 0 .4.1.5-.1V1c-.1-.1-.3-.2-.5-.1v.5z"/></svg>