<svg xmlns="http://www.w3.org/2000/svg" viewBox="0 0 80 14"><path fill="#FCEE21" d="M7.4 7.1c0 4 2.4 6.7 5.9 6.7 2.9 0 6-2.2 6-7 0-4-2.4-6.7-5.9-6.7-3.5 0-6 2.9-6 7zm2.4 0c0-2.3 1.1-4.7 3.6-4.7C16 2.4 17 5.1 17 6.9c0 2.3-1.1 4.7-3.6 4.7-2.3 0-3.6-2.3-3.6-4.5z"/><path fill="#FFF" d="M.2 1.2C.9 1.1 1.7 1 2.7 1c1.4 0 2.5.4 3.1 1 .6.5.9 1.3.9 2.3 0 1-.3 1.8-.8 2.3-.7.9-2 1.4-3.5 1.4-.5 0-1 0-1.4-.1v5H.2V1.2zM1 7.1c.4.1.9.2 1.5.2 2.1 0 3.4-1 3.4-2.9S4.5 1.7 2.7 1.7c-.8 0-1.4.1-1.7.2v5.2z"/><path fill="#F69321" d="M18.6 6.9c0 4.2-2.5 6.2-5.3 6.2-2.9 0-5.1-2.3-5.1-6 0-3.9 2.3-6.2 5.3-6.2s5.1 2.3 5.1 6zm-9.5.2c0 2.7 1.5 5.3 4.3 5.3s4.4-2.5 4.4-5.5c0-2.5-1.4-5.3-4.3-5.3-3.1 0-4.4 2.7-4.4 5.5z"/><path fill="#FFF" d="M20.7 1.1h.8v11.1h5.3v.7h-6.1V1.1zM29.8 12.9V7.8L26 1.1h.9l1.9 3.5c.5.9.9 1.7 1.3 2.5.4-.8.8-1.6 1.4-2.6l2-3.5h.9l-4 6.7v5.1h-.6zM35.8 1.3c.8-.2 1.8-.3 3.3-.3 1.6 0 2.7.3 3.5 1 .7.6 1.2 1.5 1.2 2.6s-.3 2-1 2.7c-.9.9-2.2 1.3-3.7 1.3-.4 0-.8 0-1-.1v4.4H36V1.3zm2.1 5.5c.3.1.6.1 1 .1 1.6 0 2.6-.8 2.6-2.2 0-1.3-.9-2-2.4-2-.6 0-1 .1-1.2.1v4zM45.6 1.3c.8-.1 2-.2 3.3-.2 1.7 0 2.9.3 3.6.9.6.5 1 1.4 1 2.4 0 1.5-1 2.6-2.1 3v.1c.8.3 1.3 1.1 1.6 2.3.4 1.5.7 2.8.9 3.3h-2.2c-.2-.3-.5-1.3-.8-2.8-.3-1.5-.9-2-2.1-2.1h-1.1v4.9h-2.1V1.3zm2.1 5.2H49c1.5 0 2.4-.8 2.4-1.9 0-1.3-.9-1.9-2.3-1.9-.7 0-1.1.1-1.3.1v3.7zM57.7 1.1v11.8h-2.2V1.1h2.2zM60.2 12.9V1.1h2.5l3 5.1c.8 1.3 1.5 2.7 2 4-.1-1.6-.2-3.1-.2-4.9V1.1h2v11.8h-2.2l-3.1-5.2c-.8-1.3-1.5-2.7-2.1-4.1H62c.1 1.5.1 3.1.1 5v4.2h-1.9zM74.3 1.1h2.2v10h3.4v1.8H71v-1.8h3.4v-10z"/><path fill="#E90E8B" d="M9.1 7.1c0 2.7 1.5 5.3 4.3 5.3s4.4-2.5 4.4-5.5c0-2.5-1.4-5.3-4.3-5.3-3.1 0-4.4 2.7-4.4 5.5z"/><path fill="#BC1B8B" d="M9.8 7.1c0 2.3 1.2 4.5 3.6 4.5 2.5 0 3.6-2.4 3.6-4.7 0-1.8-.9-4.5-3.5-4.5-2.5 0-3.7 2.3-3.7 4.7z"/><path fill="#0956A4" d="M10.6 7.1c0 1.9 1 3.8 2.8 3.8 2.1 0 2.8-2.1 2.8-3.9 0-1-.5-3.8-2.8-3.8-2 0-2.8 2.1-2.8 3.9z"/><path fill="#29ABE2" d="M11.4 7.1c0 1.2.5 3 2 3 1.9 0 2-2.6 2-3.1 0 0-.1-3-2-3-1.9-.1-2 2.6-2 3.1z"/><path fill="#8CC541" d="M12.2 7.1c0 .7.3 2.2 1.2 2.2 1.2 0 1.3-2 1.3-2.4 0 0-.1-2.2-1.2-2.2-1.3 0-1.3 2-1.3 2.4z"/></svg>