<?xml version="1.0" encoding="utf-8"?>
<!-- Generator: Adobe Illustrator 17.1.0, SVG Export Plug-In . SVG Version: 6.00 Build 0)  -->
<!DOCTYPE svg PUBLIC "-//W3C//DTD SVG 1.1//EN" "http://www.w3.org/Graphics/SVG/1.1/DTD/svg11.dtd">
<svg version="1.1" id="Layer_1" xmlns="http://www.w3.org/2000/svg" xmlns:xlink="http://www.w3.org/1999/xlink" x="0px" y="0px"
	 viewBox="0 0 35 35" enable-background="new 0 0 35 35" xml:space="preserve">
<g>
	<path fill="#BABBBD" d="M17.5,34v-2c8,0,14.5-6.5,14.5-14.5c0-8-6.5-14.5-14.5-14.5S3.1,9.6,3.1,17.6h-2c0-9.1,7.4-16.5,16.5-16.5
		C26.6,1.1,34,8.5,34,17.6C34,26.7,26.6,34,17.5,34z"/>
</g>
<g>
	<path fill="#BABBBD" d="M17.5,27.1L17.5,27.1c-2.5,0-4.9-1-6.7-2.8l1.4-1.4c2.9,2.9,7.7,2.9,10.6,0l1.4,1.4
		C22.5,26.1,20.1,27.1,17.5,27.1z"/>
</g>
<g>
	<rect x="0.3" y="14.7" fill="#BABBBD" width="3.5" height="5.9"/>
</g>
<g>
	<rect x="14.6" y="31.3" fill="#BABBBD" width="5.9" height="3.5"/>
</g>
<g>
	<rect x="31.3" y="14.7" fill="#BABBBD" width="3.5" height="5.9"/>
</g>
<g>
	<circle fill="#BABBBD" cx="11.5" cy="11.6" r="1.4"/>
</g>
<g>
	<circle fill="#BABBBD" cx="23.5" cy="11.6" r="1.4"/>
</g>
</svg>
