<?xml version="1.0" encoding="utf-8"?>
<!-- Generator: Adobe Illustrator 17.1.0, SVG Export Plug-In . SVG Version: 6.00 Build 0)  -->
<!DOCTYPE svg PUBLIC "-//W3C//DTD SVG 1.1//EN" "http://www.w3.org/Graphics/SVG/1.1/DTD/svg11.dtd">
<svg version="1.1" id="Layer_1" xmlns="http://www.w3.org/2000/svg" xmlns:xlink="http://www.w3.org/1999/xlink" x="0px" y="0px"
	 viewBox="0 0 73.5 29.1" enable-background="new 0 0 73.5 29.1" xml:space="preserve">
<path fill-rule="evenodd" clip-rule="evenodd" fill="#6E6F72" d="M73.5,0c0,1.1,0,2.3,0,3.4c-24.5,0-49,0-73.5,0c0-0.5,0-1.1,0-1.7
	C0,1.2,0,0.6,0,0C24.5,0,49,0,73.5,0z"/>
<path fill-rule="evenodd" clip-rule="evenodd" fill="#6E6F72" d="M29.1,6.1c1.2,0,2.3,0,3.5,0c0.2,0,0.3,0.1,0.4,0.2
	c0.3,0.4,0.7,0.9,0.9,1.3c0.1,0.2,0.3,0.4,0.5,0.6c0.1,0.2,0.3,0.4,0.4,0.7c0.3,0.4,0.6,0.9,0.9,1.3c0.4,0.5,0.7,1,1.1,1.6
	c0.4,0.6,0.8,1.1,1.2,1.7c0.3,0.4,0.6,0.8,0.9,1.3c0.2,0.3,0.5,0.7,0.7,1.1c0,0,0.1,0.1,0.2,0.1c0-3.3,0-6.5,0-9.8
	c1.2,0,2.3,0,3.4,0c0,5.6,0,11.2,0,16.8c-0.8,0-1.6,0-2.4,0c-0.2-0.2-0.5-0.4-0.6-0.7c-0.1-0.3-0.4-0.4-0.5-0.7
	c-0.5-0.7-1.1-1.4-1.6-2.1c-0.3-0.4-0.6-0.8-0.9-1.1c-0.2-0.3-0.5-0.6-0.7-0.9c-0.1-0.1-0.2-0.2-0.3-0.4c-0.1-0.1-0.2-0.2-0.2-0.3
	c-0.4-0.5-0.9-1.1-1.3-1.7c-0.2-0.3-0.5-0.6-0.7-0.9c-0.3-0.5-0.7-0.9-1.2-1.4c0,0.8,0,1.5,0,2.2c0.2,0.3,0.1,0.6,0.1,0.9
	c0,2.2,0,4.4,0,6.7c0,0.2,0,0.3,0,0.5c-1.3,0-2.5,0-3.7,0C29.1,17.3,29.1,11.7,29.1,6.1z"/>
<path fill-rule="evenodd" clip-rule="evenodd" fill="#6E6F72" d="M0,29.1c0-0.5,0-1,0-1.5c0-0.2,0.1-0.3,0.3-0.3c0.1,0,0.2,0,0.2,0
	c24.2,0,48.5,0,72.7,0c0.1,0,0.1,0,0.2,0c0,0.6,0,1.2,0,1.9C49,29.1,24.5,29.1,0,29.1z"/>
<path fill-rule="evenodd" clip-rule="evenodd" fill="#6E6F72" d="M58.4,17.1c-3.1,0-6.1,0-9.2,0c0,0.3-0.1,0.6,0,0.9
	c0.1,0.4,0.1,0.8,0.4,1.1c0.2,0.3,0.4,0.6,0.7,0.8c0.6,0.4,1.3,0.6,2,0.7c0.3,0,0.6,0.1,0.9,0.1c0.8,0,1.5-0.2,2.3-0.4
	c0.8-0.3,1.5-0.7,2.2-1.2c0.2-0.1,0.4-0.4,0.6-0.6c-0.1,0.8,0.2,1.4,0.1,2.1c0,0.2,0,0.4,0,0.6c-0.5,0.6-1.2,0.9-1.9,1.1
	c-0.6,0.2-1.1,0.3-1.7,0.4c-0.3,0.1-0.6,0-0.8,0.1c-0.5,0.2-1.1,0.1-1.6,0.1c-0.4,0-0.8-0.1-1.2-0.1c-0.2-0.2-0.5,0-0.7-0.2
	c-0.2-0.1-0.5-0.1-0.7-0.1c-0.3-0.1-0.7-0.2-1-0.3c-0.3-0.2-0.7-0.2-1-0.5c-0.3-0.2-0.7-0.4-0.9-0.6c-0.3-0.3-0.6-0.6-0.8-1
	c-0.2-0.5-0.5-0.9-0.6-1.5c-0.1-0.2-0.1-0.5-0.1-0.7c-0.2-0.5-0.1-1-0.1-1.5c0-1,0.3-1.9,0.7-2.8c0.3-0.7,0.8-1.3,1.3-1.8
	c0.5-0.5,0.9-0.9,1.5-1.2c0.4-0.2,0.9-0.3,1.4-0.5c0.9-0.3,1.9-0.2,2.8-0.2c0.5,0,0.9,0.2,1.4,0.3c0.9,0.3,2.1,1.1,2.7,1.9
	c0.3,0.5,0.6,1,0.8,1.5c0.2,0.5,0.4,1.1,0.5,1.7c0.1,0.3,0.1,0.6,0.2,0.9C58.5,16.4,58.4,16.7,58.4,17.1z M49.5,14.8
	c1.8,0,3.6,0,5.3,0c0-0.4-0.1-0.7-0.3-1c-0.2-0.4-0.5-0.8-0.9-1c-0.2-0.1-0.4-0.2-0.6-0.3c-0.4-0.2-0.9-0.1-1.4-0.1c0,0-0.1,0-0.1,0
	c-0.6,0.2-1.1,0.5-1.5,1C49.7,13.8,49.5,14.2,49.5,14.8z"/>
<path fill-rule="evenodd" clip-rule="evenodd" fill="#6E6F72" d="M60.4,12.8c-0.6,0-1.2,0-1.8,0c0-0.4,0-0.7,0-1.1
	c0.4-0.4,0.8-0.8,1.1-1.3c0.5-0.6,1-1.1,1.5-1.7c0.4-0.4,0.8-0.8,1.2-1.3c0.4-0.5,0.9-1,1.4-1.5c0.1-0.2,0.3-0.2,0.5-0.2
	c0,1.4,0,2.7,0,4.1c1.6,0,3.2,0,4.7,0c0,0.9,0,1.8,0,2.8c-1.6,0-3.1,0-4.7,0c0,0.2,0,0.3,0,0.5c0,1.4,0,2.9,0,4.3
	c0,0.6,0,1.2,0.2,1.9c0.2,0.3,0.5,0.3,0.9,0.4c0.5,0.1,1,0.1,1.5,0.1c0.2,0,0.4-0.1,0.6-0.1c0.2,0,0.4,0,0.7-0.1
	c0.3-0.1,0.5-0.3,0.8-0.4c0.1,0.5,0,1,0,1.6c0,0.5,0.1,1-0.1,1.5c-0.4,0-0.7,0.2-1.1,0.2c-0.1,0.1-0.3,0.1-0.5,0.1
	c-0.2,0-0.3,0.1-0.5,0.1c-0.2,0-0.4,0.1-0.6,0.1c-0.2,0-0.4,0-0.5,0c-0.3,0.1-0.5,0.1-0.8,0.1c-0.1,0-0.3,0-0.4,0
	c-0.3-0.1-0.7-0.1-1-0.2c-0.3-0.2-0.7-0.3-1-0.5c-0.2-0.2-0.4-0.4-0.7-0.6c-0.5-0.5-0.9-0.9-1.3-1.5c-0.2-0.4-0.4-0.7-0.4-1.1
	c0-1.9,0-3.8,0-5.8C60.4,13.2,60.4,13,60.4,12.8z"/>
<path fill-rule="evenodd" clip-rule="evenodd" fill="#6E6F72" d="M3.2,6.1c1.5,0,2.9,0,4.3,0c0,5.6,0,11.2,0,16.8
	c-0.3,0-0.6,0-0.9,0c-1,0-2,0-3.1,0c-0.3,0-0.3-0.1-0.3-0.3c0,0,0-0.1,0-0.1c0-5.3,0-10.7,0-16C3.2,6.3,3.2,6.2,3.2,6.1z"/>
<path fill-rule="evenodd" clip-rule="evenodd" fill="#6E6F72" d="M12,8.7c0.2,0.5,0.3,0.9,0.5,1.3c0.4,0,0.9,0,1.4,0
	c-0.2,0.2-0.3,0.3-0.5,0.4c-0.2,0.1-0.3,0.2-0.5,0.3c-0.2,0.2-0.2,0.1-0.1,0.4c0.1,0.2,0.1,0.4,0.2,0.6c0,0.1,0,0.2,0,0.4
	c-0.3,0.1-0.3-0.2-0.5-0.3c-0.2,0-0.3-0.2-0.5-0.4c-0.3,0.2-0.7,0.5-1,0.8c0-0.2,0-0.3,0-0.4c0,0,0.1-0.1,0.1-0.1
	c0.1-0.2,0.2-0.5,0.2-0.7c0-0.2-0.4-0.3-0.6-0.4c-0.1-0.1-0.3-0.2-0.4-0.3c0,0,0-0.1,0-0.1c0.3,0,0.6,0,0.9,0c0.3,0,0.3,0,0.5-0.4
	C11.8,9.4,11.9,9.1,12,8.7z"/>
<path fill-rule="evenodd" clip-rule="evenodd" fill="#6E6F72" d="M26.5,12.3c-0.4-0.3-0.8-0.6-1.2-0.8c-0.3,0.3-0.7,0.5-1,0.8
	c-0.1-0.3,0.1-0.5,0.1-0.7c0-0.1,0-0.1,0.1-0.2c0.1-0.3,0.1-0.4-0.2-0.6c-0.2-0.2-0.4-0.4-0.7-0.5c0,0,0-0.1,0-0.1
	c0.5,0,0.9,0,1.3,0c0.1-0.4,0.2-0.9,0.4-1.3c0.2,0.5,0.3,0.9,0.5,1.3c0.4,0,0.9,0,1.3,0c-0.1,0.3-0.3,0.3-0.5,0.5
	c-0.2,0.2-0.4,0.3-0.6,0.4C26.2,11.3,26.3,11.7,26.5,12.3z"/>
<path fill-rule="evenodd" clip-rule="evenodd" fill="#6E6F72" d="M21.4,19.5c-0.4-0.3-0.8-0.6-1.1-0.8c-0.4,0.2-0.7,0.5-1.1,0.8
	c0.1-0.3,0.2-0.5,0.2-0.7c0.1-0.2,0.1-0.4,0.1-0.7c-0.3-0.3-0.7-0.5-1.1-0.8c0.5,0,1,0,1.4,0c0.1-0.4,0.3-0.8,0.4-1.2
	c0.2,0.4,0.4,0.8,0.5,1.2c0.4,0,0.9,0,1.3,0c-0.1,0.3-0.3,0.3-0.5,0.5c-0.2,0.1-0.3,0.3-0.5,0.4C21.1,18.6,21.2,19,21.4,19.5z"/>
<path fill-rule="evenodd" clip-rule="evenodd" fill="#6E6F72" d="M23,20.5c0.4,0,0.9,0,1.4,0c-0.4,0.3-0.7,0.6-1.1,0.8
	c0.1,0.4,0.2,0.8,0.4,1.3c-0.2-0.1-0.4-0.3-0.5-0.4c-0.1,0-0.1-0.1-0.2-0.2c-0.4-0.3-0.4-0.3-0.7,0c-0.2,0.2-0.5,0.3-0.8,0.5
	c0.1-0.4,0.2-0.7,0.3-1c0.1-0.2,0.1-0.3-0.1-0.4c-0.3-0.2-0.6-0.5-1-0.7c0.4-0.1,0.9,0,1.3,0c0.1-0.4,0.3-0.9,0.5-1.3
	C22.7,19.7,22.9,20.1,23,20.5z"/>
<path fill-rule="evenodd" clip-rule="evenodd" fill="#6E6F72" d="M15.8,22.6c-0.3-0.2-0.7-0.5-1-0.7c-0.4,0.1-0.7,0.6-1.2,0.7
	c0.1-0.4,0.3-0.8,0.4-1.3c-0.3-0.3-0.7-0.5-1.1-0.8c0.4,0,0.8,0,1.2,0c0.1,0,0.3,0,0.3-0.2c0.1-0.4,0.2-0.7,0.3-1.2
	c0.3,0.4,0.2,0.9,0.5,1.3c0.4,0,0.9,0,1.3,0c-0.4,0.3-0.8,0.6-1.1,0.8C15.6,21.8,15.8,22.2,15.8,22.6C15.9,22.6,15.8,22.6,15.8,22.6
	z"/>
<path fill-rule="evenodd" clip-rule="evenodd" fill="#6E6F72" d="M18.7,20.7c0.1,0.4,0.2,0.7,0.3,1.1c0,0.1,0.1,0.2,0.3,0.2
	c0.4,0,0.7,0,1.2,0c-0.2,0.2-0.4,0.3-0.5,0.4c-0.2,0.1-0.3,0.2-0.5,0.4c0,0.4,0.3,0.9,0.4,1.4c-0.2-0.1-0.3-0.2-0.5-0.3
	c-0.1-0.1-0.2-0.2-0.3-0.2c-0.3-0.2-0.4-0.2-0.6,0c-0.2,0.2-0.5,0.3-0.7,0.5c0,0,0,0-0.1,0c0.1-0.4,0.3-0.8,0.4-1.2
	c-0.3-0.3-0.7-0.5-1.1-0.8c0.5,0,0.9,0,1.3,0C18.4,21.6,18.5,21.1,18.7,20.7C18.7,20.7,18.7,20.7,18.7,20.7z"/>
<path fill-rule="evenodd" clip-rule="evenodd" fill="#6E6F72" d="M21.8,7.8c-0.3-0.2-0.7-0.5-1-0.7c0.2,0,0.4,0,0.6,0
	c0.2,0,0.3,0,0.5,0c0.3,0,0.3,0,0.4-0.3c0.1-0.3,0.2-0.6,0.3-0.9C22.7,6,22.9,6.6,23,7.1c0.4,0,0.8,0,1.3,0
	c-0.1,0.2-0.2,0.2-0.3,0.3c-0.1,0.1-0.2,0.2-0.4,0.3c-0.1,0.1-0.2,0.2-0.3,0.2c0.1,0.4,0.3,0.8,0.4,1.3C23.2,9,23,8.6,22.5,8.5
	c-0.3,0.2-0.7,0.5-1,0.7C21.5,8.7,21.9,8.3,21.8,7.8z"/>
<path fill-rule="evenodd" clip-rule="evenodd" fill="#6E6F72" d="M15.9,9.2c-0.2-0.2-0.4-0.3-0.6-0.4c0,0-0.1-0.1-0.1-0.1
	c-0.4-0.4-0.5-0.4-0.9,0c-0.2,0.2-0.4,0.3-0.7,0.5c0.1-0.5,0.3-0.9,0.4-1.3c-0.1-0.1-0.3-0.3-0.5-0.4c-0.2-0.1-0.3-0.2-0.5-0.4
	c0.4-0.1,0.8,0,1.3,0c0.1-0.4,0.3-0.8,0.5-1.3c0.2,0.5,0.3,0.9,0.5,1.3c0.4,0,0.8,0,1.3,0c-0.4,0.3-0.7,0.6-1.1,0.8
	C15.6,8.4,15.7,8.8,15.9,9.2z"/>
<path fill-rule="evenodd" clip-rule="evenodd" fill="#6E6F72" d="M26.3,12.6c0.3,0.5,0.3,1,0.6,1.4c0.4,0,0.8,0,1.2,0
	c-0.4,0.3-0.7,0.5-1,0.8c0.1,0.4,0.3,0.8,0.4,1.3c-0.5-0.2-0.7-0.6-1.1-0.8c-0.4,0.3-0.7,0.5-1.1,0.8c0.1-0.4,0.2-0.7,0.3-1
	c0.1-0.3,0.1-0.3-0.2-0.5c-0.2-0.2-0.5-0.4-0.7-0.6c0.4-0.1,0.8,0,1.2,0C26,13.6,26.2,13.1,26.3,12.6z"/>
<path fill-rule="evenodd" clip-rule="evenodd" fill="#6E6F72" d="M26,25.9c-0.3-0.3-0.6-0.5-0.9-0.7c-0.1-0.1-0.2-0.1-0.3,0
	c-0.2,0.1-0.4,0.3-0.6,0.4c-0.1,0.1-0.2,0.1-0.4,0.2c0.2-0.5,0.3-0.8,0.4-1.3c-0.3-0.3-0.7-0.5-1.1-0.8c0.5,0,0.9,0,1.4,0
	c0.1-0.4,0.3-0.9,0.4-1.3c0.3,0.4,0.2,1,0.5,1.3c0.4,0,0.8,0,1.3,0c-0.2,0.2-0.4,0.3-0.6,0.5c-0.2,0.1-0.4,0.2-0.5,0.3
	C25.7,25,25.9,25.4,26,25.9z"/>
<path fill-rule="evenodd" clip-rule="evenodd" fill="#6E6F72" d="M12.1,16.1c-0.4-0.3-0.7-0.5-1.1-0.8c-0.4,0.3-0.7,0.5-1.2,0.9
	c0.1-0.4,0.3-0.8,0.4-1.1c0.1-0.3,0.1-0.3-0.2-0.5c-0.3-0.2-0.5-0.4-0.8-0.6c0.4,0,0.9,0,1.3,0c0.2-0.5,0.3-0.9,0.5-1.4
	c0.2,0.5,0.3,0.9,0.5,1.4c0.4,0,0.8,0,1.3,0c-0.3,0.3-0.6,0.5-0.9,0.7c-0.2,0.1-0.1,0.2-0.1,0.3C11.9,15.3,12,15.7,12.1,16.1
	C12.1,16,12.1,16.1,12.1,16.1z"/>
<path fill-rule="evenodd" clip-rule="evenodd" fill="#6E6F72" d="M19.8,8.4c-0.4-0.3-0.7-0.5-1.1-0.8c-0.4,0.3-0.7,0.5-1.2,0.8
	c0.1-0.3,0.2-0.6,0.3-0.8C18,7,18,7,17.6,6.7c-0.2-0.1-0.4-0.3-0.6-0.4c0.4-0.1,0.9,0,1.3,0c0.2-0.5,0.3-0.9,0.5-1.4
	c0.2,0.5,0.3,0.9,0.5,1.4c0.4,0,0.8,0,1.3,0c-0.4,0.2-0.6,0.5-1,0.7c0,0-0.1,0.2,0,0.3C19.6,7.6,19.7,8,19.8,8.4
	C19.8,8.3,19.8,8.4,19.8,8.4z"/>
<path fill-rule="evenodd" clip-rule="evenodd" fill="#6E6F72" d="M12.5,17.8c0.4,0,0.7,0,1.2,0c-0.4,0.3-0.7,0.5-1,0.8
	c0.1,0.4,0.2,0.8,0.4,1.3c-0.4-0.3-0.8-0.5-1.1-0.8c-0.4,0.3-0.7,0.5-1.1,0.8c0.1-0.4,0.2-0.7,0.3-1c0.1-0.1,0.1-0.2,0.1-0.4
	c0-0.1-0.1-0.1-0.2-0.2c-0.3-0.2-0.5-0.4-0.7-0.6c0.3-0.1,0.5,0,0.8,0c0.2,0,0.3,0.1,0.5-0.1c0.1-0.1,0.2-0.2,0.2-0.4
	c0-0.3,0.2-0.5,0.2-0.9C12.2,16.8,12.1,17.4,12.5,17.8z"/>
<path fill-rule="evenodd" clip-rule="evenodd" fill="#6E6F72" d="M25.4,16.4c0.2,0.5,0.3,0.9,0.5,1.4c0.4,0,0.8,0,1.3,0
	c-0.4,0.3-0.7,0.5-1.1,0.7c0.1,0.4,0.2,0.8,0.3,1.3c-0.4-0.3-0.7-0.5-1.1-0.8c-0.3,0.2-0.6,0.5-1,0.7c-0.1-0.5,0.3-0.9,0.3-1.3
	c-0.3-0.2-0.7-0.5-1-0.7c0.5,0,0.9,0,1.3,0C25.1,17.3,25.2,16.9,25.4,16.4z"/>
</svg>
