<?xml version="1.0" encoding="utf-8"?>
<!-- Generator: Adobe Illustrator 17.1.0, SVG Export Plug-In . SVG Version: 6.00 Build 0)  -->
<!DOCTYPE svg PUBLIC "-//W3C//DTD SVG 1.1//EN" "http://www.w3.org/Graphics/SVG/1.1/DTD/svg11.dtd">
<svg version="1.1" id="Layer_1" xmlns="http://www.w3.org/2000/svg" xmlns:xlink="http://www.w3.org/1999/xlink" x="0px" y="0px"
	 viewBox="0 0 73.5 40.2" enable-background="new 0 0 73.5 40.2" xml:space="preserve">
<path fill-rule="evenodd" clip-rule="evenodd" fill="#6E6F72" d="M50.3,17.3c-0.2,0-0.5,0-0.7,0c-0.1,0-0.3,0-0.4-0.1
	c-0.5-0.1-0.9-0.2-1.4-0.3c-0.2-0.1-0.4-0.1-0.5-0.2c-0.5-0.2-1-0.4-1.5-0.7c-0.4-0.2-0.7-0.5-1-0.7c-0.1-0.1-0.3-0.2-0.4-0.3
	c-0.5-0.4-0.9-0.9-1.2-1.4c-0.2-0.3-0.4-0.6-0.6-1c0,0,0-0.1,0-0.1c-0.2-0.4-0.3-0.8-0.5-1.2c-0.1-0.4-0.2-0.8-0.3-1.2
	c0-0.1,0-0.2,0-0.3c-0.1-0.4-0.1-0.8-0.1-1.2c0,0,0-0.1,0-0.1c0-0.4,0-0.7,0.1-1.1c0-0.4,0.1-0.7,0.2-1C42,6,42.1,5.7,42.2,5.5
	c0.2-0.5,0.4-0.9,0.7-1.3c0.2-0.4,0.5-0.8,0.8-1.1c0.3-0.4,0.7-0.8,1.1-1.1c0.3-0.3,0.7-0.5,1-0.7c0.5-0.3,1.1-0.6,1.6-0.7
	c0.5-0.2,1-0.3,1.5-0.4c0.1,0,0.3-0.1,0.5-0.1c0.1,0,0.3,0,0.4,0c0.4,0,0.7,0,1.1,0c0.1,0,0.3,0,0.4,0c0.5,0.1,1,0.2,1.4,0.3
	c0.4,0.1,0.7,0.2,1.1,0.4c0.3,0.2,0.7,0.3,1,0.5c0.1,0,0.1,0.1,0.2,0.1c0.3,0.2,0.5,0.4,0.8,0.6c0.3,0.2,0.5,0.5,0.8,0.8
	c0.3,0.3,0.5,0.6,0.7,0.9c0.3,0.4,0.5,0.8,0.7,1.2c0.2,0.3,0.3,0.7,0.4,1c0.1,0.4,0.2,0.8,0.3,1.2c0,0.2,0.1,0.4,0.1,0.6
	c0,0.2,0,0.4,0,0.6c0,0.2,0,0.3,0,0.5c0,0.4,0,0.8-0.1,1.1c-0.1,0.4-0.1,0.8-0.2,1.1c0,0.2-0.1,0.3-0.2,0.5
	c-0.1,0.3-0.2,0.6-0.4,0.9c-0.2,0.4-0.4,0.7-0.6,1c-0.2,0.3-0.4,0.6-0.7,0.9c-0.1,0.1-0.2,0.2-0.3,0.4c-0.1,0.1-0.2,0.2-0.3,0.3
	c-0.3,0.3-0.6,0.5-1,0.8c-0.3,0.2-0.6,0.4-1,0.6c0,0,0,0,0,0c-0.4,0.2-0.8,0.4-1.2,0.5c-0.3,0.1-0.7,0.2-1.1,0.3
	c-0.2,0-0.3,0.1-0.5,0.1C51,17.3,50.7,17.3,50.3,17.3C50.3,17.3,50.3,17.3,50.3,17.3C50.3,17.3,50.3,17.3,50.3,17.3z M53.1,7.6
	C53.1,7.7,53.1,7.7,53.1,7.6c-0.1,0.1-0.2,0.2-0.2,0.2c-0.1,0.1-0.2,0.2-0.3,0.4c-0.1,0.2-0.2,0.4-0.4,0.6c0,0,0,0-0.1,0.1
	c-0.2,0.2-0.3,0.5-0.3,0.8c0,0.2,0,0.4,0.1,0.7c0.1,0.2,0.2,0.4,0.3,0.6c0.1,0.2,0.3,0.3,0.5,0.3c0.3,0.1,0.6,0.1,0.9-0.1
	c0.1,0,0.1-0.1,0.2-0.1c0.1-0.1,0.2-0.1,0.4,0c0.2,0.1,0.4,0.3,0.4,0.5c0,0,0,0,0,0c0,0.2,0,0.4,0.2,0.5c0.2,0.2,0.3,0.5,0.4,0.7
	c0.1,0.1,0.1,0.3,0,0.4c-0.1,0.1-0.1,0.2-0.2,0.4c0,0.1,0,0.1,0,0.2c0,0.2,0.1,0.2,0.3,0.2c0.2,0,0.3-0.1,0.4-0.3
	c0.1-0.1,0.2-0.3,0.3-0.4c0.2-0.3,0.4-0.5,0.6-0.8c0.1-0.2,0.3-0.4,0.4-0.6c0.1-0.1,0.2-0.3,0.2-0.4c0.1-0.2,0.2-0.5,0.2-0.7
	c0-0.1,0-0.1,0.1-0.2c0-0.2,0.1-0.5,0.2-0.7c0.1-0.1,0.1-0.3,0-0.4c0-0.1-0.1-0.1-0.1-0.2c0-0.1-0.1-0.2-0.1-0.2
	c-0.1-0.2-0.2-0.3-0.3-0.5c-0.1-0.2-0.1-0.3,0.1-0.3c0.1,0,0.1,0,0.2,0c0,0,0,0,0.1,0c0.1,0,0.1,0,0.2-0.1c0-0.1,0-0.1,0-0.2
	c0-0.2-0.1-0.4-0.1-0.7c0-0.2-0.1-0.4-0.3-0.6c-0.1-0.1-0.2-0.2-0.4-0.1c-0.1,0-0.2,0.1-0.3,0.1c0,0-0.1,0-0.1,0c0,0-0.1,0-0.1-0.1
	c0-0.1,0-0.3,0.2-0.3c0.1,0,0.2-0.1,0.2-0.1c0.1,0,0.2-0.1,0.2-0.1c0.2-0.1,0.2-0.3,0.1-0.5c0-0.1-0.1-0.1-0.1-0.2
	c-0.1-0.1-0.2-0.3-0.2-0.4c0,0,0-0.1-0.1-0.1c-0.1-0.2-0.3-0.3-0.5-0.2c-0.2,0-0.3,0.1-0.4,0.2c-0.1,0.1-0.1,0.1-0.2,0.2
	c-0.1,0.1-0.3,0.2-0.5,0.2c-0.1,0-0.2,0-0.3,0c-0.2,0-0.3,0-0.5,0.1c-0.1,0.1-0.2,0.1-0.4,0.2c-0.2,0.1-0.3,0.2-0.4,0.5
	c0,0.1-0.1,0.2-0.1,0.3c0,0.1-0.1,0.2-0.2,0.3c0,0-0.1,0-0.1,0.1C53.1,6.8,53,6.9,52.9,7c-0.2,0.1-0.1,0.3,0,0.4
	c0,0,0.1,0.1,0.1,0.1C53,7.5,53,7.6,53.1,7.6z M49,2.8c0-0.2-0.2-0.2-0.3-0.3c-0.1-0.1-0.2,0-0.3,0c-0.1,0.1-0.1,0.1-0.1,0.2
	c-0.1,0.1-0.2,0.1-0.4,0.1c0,0-0.1,0-0.1,0c-0.4-0.2-0.3-0.1-0.6-0.1c-0.2,0-0.3,0-0.4-0.1c0,0-0.1-0.1-0.1-0.1
	c-0.2-0.1-0.3-0.1-0.4,0c-0.1,0.1-0.3,0.2-0.4,0.3c-0.1,0.1-0.3,0.2-0.4,0.3c-0.2,0.2-0.4,0.4-0.6,0.6c-0.2,0.2-0.4,0.4-0.6,0.7
	c-0.2,0.3-0.4,0.6-0.5,0.9c-0.1,0.2-0.2,0.3-0.3,0.5c-0.1,0.4-0.2,0.7-0.2,1.1c0,0.4,0.1,0.7,0.3,1.1c0.2,0.3,0.3,0.5,0.4,0.8
	C44,9,44.2,9.1,44.4,9.1c0.1,0,0.2,0.1,0.3,0.1c0.4,0.1,0.7,0.4,1,0.7c0,0,0.1,0.1,0.1,0.1c0.1,0.1,0.1,0.1,0.2,0.1
	c0.1,0,0.2,0,0.2-0.2c0-0.2-0.1-0.5-0.3-0.7c-0.1-0.1-0.2-0.3-0.3-0.4c0-0.1-0.1-0.1-0.1-0.1c-0.1,0-0.2,0-0.3,0
	c-0.2,0-0.3-0.1-0.4-0.3c-0.1-0.2,0-0.3,0.1-0.4C45,8,45.2,7.9,45.4,7.7c0.1-0.1,0.3-0.2,0.4-0.2c0.1,0,0.2,0,0.3,0.1
	c0.1,0,0.1,0.1,0.2,0.1c0.1,0.1,0.1,0.1,0.2,0.1c0.2,0,0.3,0,0.3-0.2c0,0,0-0.1,0-0.1c0-0.1,0-0.2,0.1-0.3c0.1,0,0.1-0.1,0.2-0.1
	c0.1,0,0.2-0.1,0.3-0.2c0.1-0.1,0.2-0.2,0.3-0.3c0.2-0.3,0.5-0.6,0.9-0.8c0.1-0.1,0.2-0.1,0.2-0.1c0.2-0.1,0.4-0.2,0.5-0.4
	c0-0.1,0.1-0.1,0.2-0.1c0.1,0,0.1,0,0.2,0c0.1,0,0.2,0,0.2,0C50,5,50,5,50.1,4.9c0-0.1,0-0.2,0-0.3C50,4.3,49.8,4.2,49.7,4
	c-0.1-0.1-0.1-0.1-0.2-0.2c-0.1-0.1-0.1-0.1-0.2-0.2c-0.1,0-0.1,0-0.2,0c-0.2,0.1-0.3,0.2-0.4,0.4c0,0.1-0.1,0.2-0.1,0.2
	c-0.1,0.2-0.2,0.3-0.3,0.4c-0.1,0.1-0.2,0.1-0.3,0c0,0,0,0,0-0.1c-0.1-0.2-0.2-0.4-0.4-0.5c0,0,0,0,0,0c-0.1-0.1-0.1-0.2,0-0.3
	c0.1-0.2,0.3-0.3,0.5-0.4c0.3-0.1,0.5-0.2,0.8-0.3c0,0,0.1,0,0.1,0C49,3,49,2.9,49,2.8z M46.3,10.4c0,0.1,0,0.1,0,0.1
	c0,0.1,0.1,0.2,0.1,0.2c0.1,0.2,0.1,0.4-0.1,0.5c-0.1,0-0.1,0.1-0.2,0.1c-0.1,0.1-0.2,0.2-0.2,0.4c0,0.1,0,0.2,0.1,0.3
	c0.1,0.2,0.2,0.4,0.3,0.6c0.1,0.3,0.3,0.5,0.4,0.7c0.1,0.1,0.2,0.3,0.3,0.4c0.1,0.2,0.2,0.4,0.2,0.6c0,0.1,0,0.3,0,0.4
	c0,0.1,0,0.3-0.1,0.4c0,0.1,0,0.2,0.1,0.2c0.3,0.2,0.6,0.3,1,0.4c0.2,0.1,0.5,0.1,0.7,0.2c0.2,0,0.4-0.1,0.4-0.3c0,0,0-0.1,0-0.1
	c0-0.1,0-0.1,0-0.2c0-0.3,0.1-0.6,0.4-0.8c0.1-0.1,0.2-0.1,0.3-0.2c0.1-0.1,0.1-0.1,0.2-0.2c0.1-0.2,0.2-0.4,0.2-0.6
	c0-0.2,0.1-0.4,0.2-0.6c0,0,0.1-0.1,0.1-0.1c0,0,0.1-0.1,0.1-0.1c0.1-0.1,0.1-0.3,0-0.4c-0.1-0.1-0.2-0.2-0.3-0.2
	c-0.2,0-0.3-0.1-0.5-0.2c-0.1-0.1-0.3-0.2-0.4-0.2c-0.1,0-0.2-0.1-0.2-0.2c0-0.1,0-0.2-0.1-0.3c0-0.2-0.1-0.3-0.3-0.4
	c-0.1,0-0.1-0.1-0.2-0.1c-0.2-0.1-0.4-0.2-0.5-0.3c-0.2-0.2-0.4-0.3-0.6-0.4c-0.2-0.1-0.4-0.1-0.7-0.1c-0.2,0.1-0.5,0.1-0.7,0.2
	C46.4,10.3,46.3,10.3,46.3,10.4z M51.6,3.1C51.6,3.2,51.6,3.2,51.6,3.1c0,0.2,0.1,0.4,0.1,0.5c0.1,0.1,0.2,0.1,0.3,0
	c0,0,0.1-0.1,0.1-0.1c0.1-0.1,0.1-0.2,0.1-0.2C52.4,3.2,52.5,3,52.7,3c0.2-0.1,0.4-0.2,0.6-0.4c0.1,0,0.1-0.1,0.2-0.2
	c0.2-0.2,0.1-0.4-0.1-0.5c-0.2-0.1-0.4-0.2-0.6-0.3c-0.1,0-0.2-0.1-0.3-0.1c-0.1,0-0.3-0.1-0.4-0.1c-0.2-0.1-0.4-0.1-0.6-0.1
	c-0.1,0-0.3,0.1-0.3,0.3c0,0.1,0,0.2,0.1,0.3c0.1,0,0.1,0,0.2,0.1c0,0,0.1,0,0.1,0c0.1,0.1,0.2,0.2,0.1,0.3c0,0.1,0,0.2-0.1,0.3
	C51.7,2.8,51.6,3,51.6,3.1z M54.3,4.5c0,0.1,0,0.2,0.1,0.2C54.6,4.9,54.8,4.9,55,5c0.1,0,0.2,0,0.2-0.1c0-0.1,0-0.2,0-0.3
	c0-0.1,0-0.2,0-0.3c0-0.2,0.1-0.2,0.3-0.1c0,0,0.1,0.1,0.1,0.1c0.1,0.1,0.1,0.1,0.2,0.2c0,0,0.1,0.1,0.2,0.1c0.2,0,0.3-0.1,0.3-0.3
	c0-0.1,0-0.1-0.1-0.2c0,0-0.1-0.1-0.1-0.1c-0.1-0.1-0.2-0.3-0.3-0.4c-0.1-0.1-0.2-0.2-0.4-0.1c-0.1,0-0.2,0.1-0.3,0.2
	C55,3.8,54.9,3.9,54.8,4c-0.1,0.1-0.2,0.1-0.3,0.2c-0.1,0.1-0.1,0.1-0.1,0.2C54.3,4.4,54.3,4.4,54.3,4.5z M50.7,2.8
	C50.7,2.7,50.7,2.7,50.7,2.8c-0.1-0.4-0.3-0.5-0.5-0.7c-0.1,0-0.2,0-0.2,0c-0.1,0.1-0.1,0.2,0,0.2c0,0.1,0.1,0.1,0.1,0.2
	c0,0.1,0.1,0.2,0,0.3C50,2.9,50,3,49.9,3c0,0.1,0,0.2,0,0.2c0.1,0.1,0.2,0.1,0.3,0.1c0.1,0,0.1-0.1,0.1-0.1c0.1-0.1,0.2-0.2,0.3-0.4
	C50.7,2.8,50.7,2.8,50.7,2.8z M47.3,8.8c-0.1-0.3-0.2-0.4-0.5-0.5c0,0-0.1,0-0.1,0c-0.1,0-0.1,0.2-0.1,0.3c0.2,0.1,0.3,0.2,0.5,0.2
	C47.2,8.9,47.2,8.8,47.3,8.8z M53.8,5.7C53.8,5.7,53.8,5.7,53.8,5.7C53.9,5.6,54,5.5,54,5.4c0-0.2-0.1-0.3-0.3-0.2
	c-0.1,0-0.2,0.1-0.2,0.2C53.5,5.5,53.6,5.7,53.8,5.7z M48,8.9C48,8.9,48,8.8,48,8.9c-0.1-0.1-0.2-0.1-0.2-0.1c0,0,0,0.1,0.1,0.1
	c0,0,0.1,0,0.1,0C48,9,48,9,48,8.9z"/>
<path fill-rule="evenodd" clip-rule="evenodd" fill="#6E6F72" d="M27.2,17c-0.2,0-0.3,0-0.5,0c0-0.1,0-0.1,0-0.2c0-0.6,0-1.1,0-1.7
	c0-1.2,0-2.4,0-3.6c0-0.1,0-0.2,0-0.2c0.2,0,0.3,0,0.5,0c0,0.1,0,0.1,0,0.2c0,0.3,0.1,0.5,0.2,0.8c0.1,0.4,0.3,0.7,0.5,1.1
	c0.2,0.4,0.5,0.8,0.9,1.2c0.2,0.3,0.5,0.5,0.8,0.7c0.4,0.3,0.8,0.5,1.2,0.6c0.4,0.2,0.8,0.3,1.3,0.3c0.4,0.1,0.8,0.1,1.3,0
	c0.5,0,1-0.1,1.4-0.3c0.6-0.3,1.1-0.7,1.3-1.3c0.1-0.3,0.2-0.6,0.2-1c0-0.3,0-0.7-0.2-1c-0.1-0.4-0.4-0.7-0.7-0.9
	c-0.3-0.3-0.7-0.5-1-0.6c-1.4-0.6-2.9-1.2-4.3-1.8c-0.4-0.2-0.8-0.4-1.2-0.6c-0.3-0.2-0.5-0.4-0.8-0.6c-0.3-0.2-0.5-0.5-0.7-0.8
	C27.3,7,27.1,6.6,27,6.1c-0.1-0.3-0.1-0.5-0.1-0.8c0-0.2,0-0.4,0-0.6c0-0.5,0.1-0.9,0.3-1.4c0.3-0.7,0.7-1.3,1.3-1.8
	c0.4-0.3,0.9-0.6,1.3-0.8c0.5-0.2,0.9-0.3,1.4-0.4c0.3,0,0.6-0.1,0.9-0.1c0.3,0,0.5,0,0.8,0c0.1,0,0.3,0,0.4,0
	c0.5,0.1,1.1,0.2,1.6,0.4c0.4,0.1,0.7,0.3,1.1,0.4c0.2,0.1,0.3,0.1,0.5,0.2c0.2,0.1,0.3,0.1,0.5,0c0.1,0,0.2-0.1,0.3-0.2
	c0.2-0.2,0.3-0.3,0.3-0.6c0,0,0-0.1,0-0.1c0.2,0,0.3,0,0.5,0c0,0,0,0.1,0,0.1c0,0.3,0,0.6,0,0.9c0,1.2,0,2.5,0,3.7
	c0,0.1,0,0.2,0,0.2c-0.1,0-0.2,0.1-0.5,0c-0.1-0.1-0.1-0.2-0.1-0.4c-0.2-0.7-0.4-1.3-0.8-1.9c-0.4-0.6-0.9-1-1.5-1.4
	c-0.4-0.2-0.8-0.4-1.3-0.5c-0.3-0.1-0.6-0.1-0.9-0.2c-0.3,0-0.6,0-0.9,0c-0.6,0-1.1,0.1-1.6,0.4c-0.5,0.3-1,0.7-1.2,1.3
	c-0.1,0.2-0.1,0.5-0.1,0.8c0,0.3,0,0.5,0.2,0.8C29.6,4.8,29.7,5,30,5.2c0.3,0.3,0.7,0.5,1.1,0.7c0.9,0.4,1.9,0.8,2.8,1.2
	c0.5,0.2,1.1,0.5,1.6,0.7c0.6,0.3,1.2,0.6,1.8,1.1c0.6,0.5,1.1,1.1,1.3,1.9c0.1,0.4,0.2,0.7,0.3,1.1c0,0.3,0,0.5,0,0.8
	c0,0.3-0.1,0.6-0.1,0.8C38.6,14,38.4,14.6,38,15c-0.3,0.5-0.8,0.9-1.3,1.2c-0.4,0.3-0.8,0.5-1.3,0.7c-0.5,0.2-1,0.3-1.5,0.3
	c-0.6,0.1-1.1,0.1-1.7,0c-0.3,0-0.5-0.1-0.8-0.1c-0.5-0.1-1.1-0.3-1.6-0.6c-0.3-0.1-0.6-0.3-0.9-0.4c-0.2-0.1-0.3-0.1-0.5-0.2
	c-0.3-0.1-0.6,0-0.9,0.3c-0.2,0.2-0.3,0.4-0.4,0.7C27.2,17,27.2,17,27.2,17z"/>
<path fill-rule="evenodd" clip-rule="evenodd" fill="#6E6F72" d="M14.3,17c0-0.2,0-0.3,0-0.4c0-0.1,0.1,0,0.1,0c0.3,0,0.5,0,0.8,0
	c0.5,0,1.1-0.4,1.2-0.9c0.1-0.2,0.1-0.4,0.1-0.6c0-4.2,0-8.5,0-12.7c0-0.3,0-0.5-0.2-0.7c-0.1-0.3-0.4-0.5-0.7-0.6
	C15.5,1,15.4,1,15.2,1c-0.3,0-0.6,0-0.8,0c0,0-0.1,0-0.1,0c0-0.1,0-0.3,0-0.4c0,0,0,0,0.1,0c2.7,0,5.4,0,8,0c0,0,0.1,0,0.1,0
	c0,0.1,0,0.3,0,0.4c-0.1,0-0.1,0-0.2,0c-0.2,0-0.4,0-0.6,0c-0.2,0-0.4,0-0.6,0.1c-0.4,0.1-0.7,0.5-0.8,0.9c0,0.1,0,0.3-0.1,0.4
	c-0.1,0.5,0,1,0,1.5c0,3.8,0,7.5,0,11.3c0,0.2,0,0.4,0.1,0.6c0.1,0.4,0.4,0.7,0.9,0.8c0.1,0,0.2,0,0.3,0c0.3,0,0.6,0,0.9,0
	c0,0,0,0.1,0,0.1c0,0.1,0,0.2,0,0.3c0,0-0.1,0-0.1,0c0,0-0.1,0-0.1,0c-2.6,0-5.1,0-7.7,0C14.5,17,14.4,17,14.3,17z"/>
<path fill-rule="evenodd" clip-rule="evenodd" fill="#6E6F72" d="M71.5,25.7c0,0.1,0.1,0.1,0.2,0.1c0.3,0.1,0.5,0.3,0.8,0.5
	c0.4,0.3,0.6,0.8,0.8,1.2c0.2,0.4,0.2,0.9,0.2,1.3c-0.1,0.7-0.3,1.2-0.7,1.7c-0.4,0.4-0.8,0.7-1.3,0.9c-0.5,0.2-1,0.3-1.6,0.2
	c-0.2,0-0.5,0-0.7,0c-0.5,0-1-0.1-1.4-0.3c-0.7-0.3-1.2-0.8-1.4-1.5c-0.1-0.2-0.1-0.5-0.1-0.8c0-0.5,0.1-1,0.4-1.4
	c0.2-0.3,0.4-0.6,0.7-0.8c0.2-0.1,0.4-0.2,0.6-0.3c0,0,0.1,0,0.1-0.1c0-0.1-0.1-0.1-0.1-0.1c-0.1-0.1-0.3-0.2-0.4-0.3
	c-0.4-0.3-0.7-0.8-0.9-1.3c-0.1-0.4-0.2-0.9-0.2-1.3c0-0.5,0.2-1,0.5-1.4c0.4-0.6,0.9-0.9,1.5-1.2c0.4-0.1,0.8-0.2,1.2-0.2
	c0.1,0,0.2,0,0.2,0c0.5,0,1,0.1,1.5,0.3c0.3,0.1,0.6,0.3,0.9,0.5c0.4,0.4,0.7,0.8,0.8,1.4c0,0.2,0,0.5,0,0.7c0,0.3-0.1,0.6-0.3,0.8
	c-0.1,0.2-0.3,0.4-0.5,0.6c-0.2,0.1-0.3,0.3-0.5,0.4C71.6,25.6,71.6,25.7,71.5,25.7z M69.8,30.6c0.3,0,0.5,0,0.7,0
	c0.2-0.1,0.5-0.1,0.7-0.3c0.2-0.1,0.4-0.3,0.5-0.6c0.1-0.2,0.1-0.5,0.1-0.7c0-0.4-0.2-0.7-0.4-0.9c-0.2-0.2-0.4-0.3-0.7-0.3
	c-0.6-0.2-1.2-0.4-1.7-0.6c-0.1,0-0.3,0-0.4,0c0,0-0.1,0-0.1,0.1c-0.4,0.3-0.7,0.6-0.8,1.1c-0.1,0.3-0.1,0.6,0,0.9
	c0.1,0.6,0.5,0.9,1,1.2C69.1,30.5,69.4,30.6,69.8,30.6z M70.5,25.4c0.4-0.2,0.6-0.5,0.8-0.9c0.2-0.5,0.3-0.9,0.1-1.4
	c-0.1-0.3-0.2-0.5-0.4-0.6c-0.3-0.3-0.7-0.4-1.1-0.4c-0.1,0-0.2,0-0.3,0c-0.3,0-0.6,0.1-0.9,0.2C68.3,22.5,68,23,68,23.5
	c0,0.4,0.2,0.7,0.5,1c0.2,0.2,0.4,0.3,0.6,0.4c0.1,0.1,0.3,0.1,0.5,0.2C69.9,25.1,70.2,25.2,70.5,25.4z"/>
<path fill-rule="evenodd" clip-rule="evenodd" fill="#6E6F72" d="M24.9,26.3c0,0.2,0,0.5,0,0.7c0,0.6-0.1,1.2-0.3,1.7
	c-0.2,0.5-0.4,1.1-0.8,1.5c-0.3,0.5-0.8,0.8-1.3,1.1c-0.4,0.2-0.9,0.4-1.4,0.4c-0.4,0-0.7,0-1-0.1c-0.4-0.1-0.7-0.3-1-0.5
	c-0.6-0.5-1-1-1.3-1.7c-0.2-0.5-0.4-1.1-0.5-1.6c0-0.2-0.1-0.5-0.1-0.7c-0.1-0.4,0-0.8,0-1.3c0-0.2,0-0.3,0-0.5
	c0.1-0.4,0.1-0.8,0.2-1.2c0.1-0.4,0.2-0.7,0.4-1.1c0.2-0.3,0.4-0.7,0.6-1c0.3-0.4,0.7-0.7,1.2-0.9c0.3-0.1,0.6-0.2,0.9-0.3
	c0.4,0,0.9,0,1.3,0.1c0.5,0.1,0.9,0.4,1.3,0.7c0.4,0.3,0.7,0.8,0.9,1.2c0.2,0.3,0.3,0.7,0.4,1c0.1,0.4,0.2,0.9,0.3,1.3
	C24.9,25.6,24.9,26,24.9,26.3z M19.3,26.4c0,0.4,0,0.9,0,1.3c0,0.3,0.1,0.6,0.1,0.8c0.1,0.3,0.1,0.7,0.3,1c0.2,0.3,0.3,0.6,0.6,0.8
	c0.5,0.4,1.2,0.3,1.7-0.1c0.4-0.3,0.6-0.8,0.7-1.2c0.1-0.3,0.1-0.6,0.1-0.9c0-0.2,0.1-0.4,0.1-0.7c0-0.5,0-0.9,0-1.4
	c0-0.3,0-0.6,0-0.9c0-0.3-0.1-0.6-0.1-0.9c0-0.3-0.1-0.5-0.2-0.8c-0.1-0.4-0.3-0.7-0.6-1c-0.4-0.4-1-0.4-1.4-0.2
	c-0.2,0.1-0.4,0.3-0.6,0.5c-0.2,0.3-0.3,0.6-0.4,0.9c-0.2,0.7-0.2,1.3-0.3,2C19.3,25.9,19.3,26.1,19.3,26.4z"/>
<path fill-rule="evenodd" clip-rule="evenodd" fill="#6E6F72" d="M56.9,26.4c0-0.2,0-0.5,0-0.7c0-0.7,0.2-1.4,0.4-2
	c0.2-0.6,0.5-1.2,1-1.7c0.5-0.5,1-0.8,1.7-1c0.2,0,0.4-0.1,0.6-0.1c0,0,0.1,0,0.1,0c0.3,0,0.7,0,1,0.1c0.3,0.1,0.6,0.2,0.8,0.4
	c0.5,0.4,0.9,0.8,1.2,1.4c0.3,0.6,0.5,1.3,0.7,2c0,0.3,0.1,0.5,0.1,0.8c0,0.4,0,0.8,0,1.3c0,0.7-0.2,1.5-0.4,2.1
	c-0.2,0.6-0.5,1.1-0.9,1.6c-0.5,0.5-1,0.9-1.7,1.1c-0.2,0.1-0.4,0.1-0.6,0.1c-0.3,0-0.5,0-0.8-0.1c-0.5-0.1-0.9-0.3-1.2-0.5
	c-0.4-0.3-0.8-0.7-1-1.1c-0.2-0.3-0.4-0.7-0.5-1.1c-0.2-0.5-0.3-0.9-0.3-1.4c0-0.3,0-0.6-0.1-0.8C56.9,26.6,56.9,26.5,56.9,26.4
	L56.9,26.4z M62.5,26.4L62.5,26.4c0-0.2,0-0.4,0-0.7c0-0.2,0-0.3,0-0.5c0-0.4-0.1-0.7-0.1-1.1c-0.1-0.4-0.2-0.8-0.4-1.2
	c-0.1-0.2-0.3-0.4-0.5-0.6c-0.4-0.3-0.9-0.3-1.4,0c-0.3,0.2-0.5,0.4-0.7,0.7c-0.2,0.3-0.3,0.7-0.3,1c0,0.3-0.1,0.5-0.1,0.8
	c0,0.3,0,0.5-0.1,0.8c0,0.6,0,1.2,0,1.7c0,0.4,0.1,0.9,0.2,1.3c0,0.3,0.1,0.6,0.2,0.8c0.1,0.3,0.3,0.5,0.6,0.7
	c0.4,0.3,0.8,0.4,1.3,0.2c0.4-0.1,0.6-0.4,0.8-0.7c0.2-0.3,0.3-0.6,0.4-1c0-0.2,0.1-0.5,0.1-0.7c0-0.2,0.1-0.4,0.1-0.6
	C62.5,27.1,62.5,26.7,62.5,26.4z"/>
<path fill-rule="evenodd" clip-rule="evenodd" fill="#6E6F72" d="M16,26.4c0,0.1,0,0.1,0,0.2c0,0.3,0,0.6-0.1,0.9
	c0,0.3-0.1,0.7-0.2,1c-0.2,0.7-0.5,1.4-0.9,1.9c-0.3,0.4-0.7,0.8-1.2,1.1c-0.4,0.2-0.9,0.3-1.4,0.3c-0.4,0-0.7,0-1.1-0.1
	c-0.3-0.1-0.7-0.3-0.9-0.5c-0.4-0.3-0.7-0.7-1-1.1c-0.2-0.3-0.3-0.6-0.5-1c-0.2-0.5-0.3-1-0.4-1.5c0-0.3,0-0.6-0.1-0.8
	c0-0.2,0-0.3,0-0.5c0-0.3,0-0.7,0.1-1c0.1-0.5,0.2-0.9,0.3-1.4c0.1-0.4,0.3-0.8,0.5-1.1c0.2-0.3,0.3-0.5,0.5-0.7
	c0.3-0.3,0.7-0.6,1.1-0.8c0.4-0.2,0.8-0.3,1.2-0.3c0.1,0,0.1,0,0.2,0c0.4,0,0.7,0.1,1.1,0.2c0.4,0.1,0.7,0.3,1,0.6
	c0.4,0.4,0.7,0.8,1,1.2c0.3,0.6,0.5,1.3,0.6,1.9c0,0.3,0.1,0.6,0.1,0.9C16,26,16,26.2,16,26.4L16,26.4z M10.3,26.4c0,0.3,0,0.7,0,1
	c0,0.4,0.1,0.7,0.1,1.1c0.1,0.4,0.1,0.7,0.3,1.1c0.1,0.3,0.3,0.5,0.6,0.7c0.5,0.4,1.2,0.4,1.7,0c0.4-0.3,0.6-0.7,0.7-1.1
	c0.1-0.3,0.1-0.5,0.1-0.8c0-0.2,0-0.3,0-0.5c0.1-0.3,0.1-0.6,0.1-0.9c0-0.5,0-1,0-1.6c0-0.4-0.1-0.9-0.1-1.3c-0.1-0.3-0.1-0.7-0.3-1
	c-0.1-0.3-0.3-0.5-0.5-0.7c-0.4-0.4-0.8-0.4-1.3-0.3c-0.3,0.1-0.5,0.3-0.7,0.6c-0.2,0.2-0.3,0.5-0.4,0.8c-0.1,0.5-0.2,0.9-0.2,1.4
	c0,0.4-0.1,0.8,0,1.2C10.3,26.2,10.3,26.3,10.3,26.4z"/>
<path fill-rule="evenodd" clip-rule="evenodd" fill="#6E6F72" d="M55.7,26.3c0,0.1,0,0.1,0,0.2c0,0.3,0,0.6-0.1,0.9
	c0,0.3-0.1,0.7-0.2,1c-0.2,0.6-0.4,1.2-0.8,1.7c-0.3,0.5-0.8,0.9-1.3,1.2c-0.4,0.2-0.9,0.4-1.4,0.4c-0.2,0-0.5,0-0.7-0.1
	c-0.5-0.1-0.9-0.3-1.3-0.6c-0.4-0.3-0.7-0.7-1-1.1c-0.2-0.3-0.4-0.7-0.5-1c-0.2-0.4-0.3-0.9-0.3-1.4c0-0.1,0-0.2,0-0.4
	c0-0.4-0.1-0.7,0-1.1c0,0,0-0.1,0-0.1c0-0.3,0-0.6,0.1-0.9c0-0.3,0.1-0.7,0.2-1c0.1-0.6,0.4-1.1,0.7-1.6c0.2-0.2,0.3-0.5,0.5-0.7
	c0.4-0.4,0.8-0.7,1.2-0.8c0.3-0.1,0.7-0.2,1-0.2c0.1,0,0.2,0,0.3,0c0.5,0,1,0.1,1.5,0.4c0.7,0.4,1.1,0.9,1.5,1.6
	c0.3,0.6,0.5,1.2,0.6,1.9c0.1,0.3,0.1,0.7,0.1,1C55.7,26,55.7,26.2,55.7,26.3L55.7,26.3z M50.1,26.4c0,0.5,0,1,0.1,1.5
	c0,0.3,0.1,0.5,0.1,0.8c0.1,0.3,0.1,0.6,0.3,0.8c0.1,0.3,0.3,0.5,0.6,0.7c0.4,0.3,0.9,0.4,1.4,0.2c0.3-0.1,0.5-0.4,0.6-0.6
	c0.2-0.3,0.3-0.7,0.4-1.1c0-0.3,0.1-0.5,0.1-0.8c0-0.3,0-0.6,0.1-0.8c0-0.5,0-1.1,0-1.6c0-0.4-0.1-0.7-0.1-1.1
	c0-0.3-0.1-0.6-0.2-0.9c-0.1-0.4-0.3-0.7-0.6-1c-0.4-0.4-0.9-0.4-1.4-0.2c-0.2,0.1-0.4,0.3-0.6,0.5c-0.1,0.2-0.2,0.4-0.3,0.7
	c-0.2,0.5-0.2,1-0.3,1.6C50.1,25.5,50,25.9,50.1,26.4C50.1,26.4,50.1,26.4,50.1,26.4z"/>
<path fill-rule="evenodd" clip-rule="evenodd" fill="#6E6F72" d="M1.5,30.1C1.6,30.1,1.6,30.2,1.5,30.1c0.3,0.3,0.6,0.5,1,0.6
	c0.6,0.1,1.2,0,1.6-0.4c0.3-0.3,0.5-0.6,0.6-0.9C4.9,29,4.9,28.6,5,28.2c0.1-0.5,0.1-1,0.1-1.6c0,0,0-0.1,0-0.1c0,0-0.1,0.1-0.1,0.1
	c-0.2,0.2-0.5,0.4-0.8,0.6c-0.3,0.1-0.5,0.2-0.8,0.3c-0.3,0.1-0.5,0.1-0.8,0c-0.6,0-1.1-0.2-1.5-0.6c-0.4-0.4-0.7-0.8-0.9-1.4
	c-0.2-0.5-0.2-1-0.2-1.5c0.1-0.9,0.4-1.7,1.2-2.4c0.5-0.4,1-0.7,1.7-0.8c0.3,0,0.5,0,0.8,0c0.3,0,0.6,0.1,0.9,0.2
	C5,21.3,5.4,21.7,5.8,22c0.3,0.4,0.6,0.8,0.8,1.3c0.2,0.6,0.3,1.2,0.4,1.8C7,25.7,7,26.3,7,27c0,0.6-0.2,1.3-0.4,1.9
	c-0.2,0.7-0.5,1.3-1,1.8c-0.4,0.4-0.8,0.8-1.4,1c-0.3,0.1-0.6,0.2-0.9,0.2c-0.1,0-0.3,0-0.4,0c-0.5,0-1.1-0.2-1.5-0.5
	c-0.4-0.3-0.7-0.6-0.9-1c-0.1-0.3-0.2-0.6-0.2-0.9c0-0.3,0-0.6,0.1-0.8c0.1-0.2,0.2-0.4,0.5-0.6c0.4-0.2,0.8-0.2,1.2,0.1
	c0.3,0.3,0.4,0.7,0.4,1.1c0,0.3-0.2,0.6-0.5,0.8C1.8,30.1,1.7,30.1,1.5,30.1z M5,24.3c0-0.1,0-0.2,0-0.2c0-0.5-0.1-0.9-0.4-1.3
	c-0.2-0.2-0.4-0.4-0.6-0.5c-0.3-0.1-0.5-0.1-0.8-0.1c-0.3,0-0.5,0.2-0.7,0.4c-0.3,0.3-0.4,0.6-0.5,1c-0.1,0.3-0.1,0.6,0,1
	c0,0.4,0.1,0.8,0.4,1.2c0.2,0.3,0.5,0.6,0.9,0.6c0.4,0.1,0.8-0.1,1.1-0.3c0.3-0.2,0.4-0.5,0.5-0.9C5,24.8,5.1,24.5,5,24.3z"/>
<path fill-rule="evenodd" clip-rule="evenodd" fill="#6E6F72" d="M40.8,29.9c0.1,0,0.1-0.1,0.2-0.1c0.3-0.2,0.6-0.3,0.9-0.4
	c0,0,0.1,0,0.1,0c0.4,0,0.9,0,1.3,0.1c0.2,0.1,0.5,0.1,0.7,0.2c0.2,0.1,0.5,0.1,0.7,0.1c0.6,0,1-0.3,1.2-0.8
	c0.1-0.3,0.2-0.5,0.2-0.8c0-0.1,0-0.2,0-0.3c0.2,0,0.5,0,0.8,0c0,0,0,0.1,0,0.1c0,0.5,0,1,0,1.4c0,0.5-0.2,1-0.4,1.4
	c-0.3,0.5-0.7,0.8-1.3,0.9c-0.3,0.1-0.7,0.1-1,0c-0.4-0.1-0.8-0.2-1.1-0.4c-0.3-0.2-0.6-0.3-0.9-0.5c-0.2-0.1-0.3-0.1-0.5-0.2
	c-0.1,0-0.3,0-0.4-0.1c-0.3,0-0.5,0.2-0.5,0.4c0,0.1-0.1,0.3-0.1,0.4c0,0,0,0.1,0,0.1c-0.1,0.1-0.2,0-0.3,0c-0.1,0-0.2,0-0.3,0
	c-0.1,0-0.2,0-0.3,0c0-0.2,0-0.3,0-0.5c0-0.1,0-0.2,0-0.3c0-0.5,0.1-1,0.2-1.4c0.2-0.5,0.5-0.9,0.8-1.3c0.4-0.4,0.8-0.7,1.3-1
	c0.3-0.2,0.7-0.4,1-0.7c0.3-0.2,0.5-0.3,0.7-0.5c0.3-0.3,0.5-0.5,0.6-0.9c0.1-0.3,0.1-0.6,0.1-0.9c0-0.4-0.2-0.9-0.4-1.2
	c-0.2-0.3-0.5-0.5-0.8-0.6c-0.5-0.2-1-0.1-1.4,0.1c-0.3,0.1-0.5,0.3-0.7,0.6c-0.2,0.2-0.3,0.5-0.4,0.7c0,0,0,0,0,0c0,0,0,0,0,0
	c0,0,0.1,0,0.1,0c0.1,0,0.1-0.1,0.2-0.1c0.3-0.1,0.7,0,0.9,0.2c0.2,0.3,0.3,0.5,0.3,0.8c0,0.3,0,0.5-0.2,0.7
	c-0.3,0.5-0.9,0.8-1.4,0.5c-0.2-0.1-0.4-0.3-0.6-0.5c-0.2-0.3-0.3-0.7-0.3-1.1c0-1.1,0.5-2,1.4-2.7c0.4-0.3,0.9-0.5,1.4-0.6
	c0.7-0.1,1.4-0.1,2.1,0.2c0.4,0.1,0.7,0.4,1,0.7c0.5,0.5,0.8,1.1,0.9,1.8c0.1,0.4,0.1,0.8,0,1.2c0,0.4-0.1,0.7-0.3,1.1
	c-0.2,0.4-0.4,0.6-0.7,0.9c-0.3,0.2-0.6,0.4-0.9,0.5c-0.5,0.2-1,0.4-1.5,0.5c-0.3,0.1-0.5,0.2-0.8,0.3c-0.3,0.1-0.5,0.3-0.8,0.5
	c-0.2,0.2-0.4,0.5-0.6,0.8C40.9,29.5,40.8,29.7,40.8,29.9z"/>
<path fill-rule="evenodd" clip-rule="evenodd" fill="#6E6F72" d="M32.4,30.3c0,0.3,0,1,0,1.2c0,0,0,0,0,0c-1.6,0-3.2,0-4.8,0
	c0,0-0.1,0-0.1,0c0-0.1,0-0.3,0-0.4c0-0.1,0-0.3,0-0.4c0-0.1,0-0.3,0-0.4c0.1,0,0.1,0,0.2,0c0.2,0,0.5,0,0.7,0
	c0.3,0,0.5-0.2,0.6-0.4c0.1-0.2,0.1-0.3,0.1-0.5c0-1.7,0-3.5,0-5.2c0-0.1,0-0.1,0-0.2c-0.1-0.1-0.1,0-0.2,0c-0.4,0-0.8,0-1.1,0
	c-0.1,0-0.1,0-0.2,0c0-0.1,0-0.3,0-0.4c0-0.1,0-0.3,0-0.4c0-0.1,0-0.3,0-0.4c0.1,0,0.1,0,0.2,0c0.3,0,0.7-0.1,1-0.2
	c0.3-0.2,0.6-0.4,0.7-0.7c0.1-0.2,0.1-0.3,0.2-0.5c0,0,0,0,0.1,0c0.4,0,0.8,0,1.2,0c0,0,0,0,0.1,0c0,0,0,0.1,0,0.1
	c0,0.1,0,0.1,0,0.2c0,2.6,0,5.1,0,7.7c0,0.2,0,0.4,0,0.5c0.1,0.3,0.2,0.4,0.5,0.5c0.1,0,0.3,0.1,0.4,0.1c0.2,0,0.4,0,0.5,0
	C32.3,30.2,32.4,30.3,32.4,30.3z"/>
<path fill-rule="evenodd" clip-rule="evenodd" fill="#6E6F72" d="M54.5,38.2c0,0.2,0,0.3,0,0.4c0,0.2,0,0.4,0,0.6c0,0.1,0,0.1,0,0.2
	c0,0.2,0.1,0.3,0.3,0.3c0.1,0,0.1,0,0.2,0c0,0,0.1,0,0.2,0c0,0.1,0,0.2,0,0.4c-0.1,0-0.1,0-0.1,0c-0.7,0-1.9,0-2,0
	c0-0.1,0-0.2,0-0.4c0.1,0,0.2,0,0.3,0c0.3,0,0.4-0.1,0.4-0.4c0-0.8,0-1.7,0-2.5c0-0.2-0.1-0.3-0.3-0.3c-0.1,0-0.2,0-0.4,0
	c0-0.1,0-0.3,0-0.4c0.1-0.1,0.1,0,0.2,0c0.8,0,1.5,0,2.3,0c0.2,0,0.5,0,0.7,0.1c0.3,0.1,0.7,0.4,0.7,0.8c0,0.5-0.1,0.8-0.6,1
	c-0.1,0.1-0.3,0.1-0.4,0.1c0,0,0.1,0,0.1,0.1c0.1,0.1,0.2,0.1,0.3,0.2c0.1,0.1,0.2,0.2,0.2,0.3c0,0.1,0,0.3,0,0.4c0,0.1,0,0.2,0,0.3
	c0,0.1,0,0.1,0.1,0.2c0,0.1,0.1,0.1,0.2,0.1c0.1,0,0.1-0.1,0.1-0.1c0-0.1,0-0.1,0-0.2c0-0.1,0-0.2,0-0.4c0.1,0,0.3,0,0.4,0
	c0,0.1,0,0.1,0,0.1c0,0.1,0,0.2,0,0.3c0,0.1,0,0.2,0,0.3c-0.1,0.3-0.3,0.4-0.6,0.5c-0.1,0-0.3,0-0.4,0c-0.3,0-0.5-0.2-0.6-0.5
	c0,0,0-0.1,0-0.2c0-0.2,0-0.4,0-0.6c0-0.1,0-0.3-0.1-0.4c-0.1-0.2-0.2-0.3-0.4-0.3C55,38.1,54.8,38.1,54.5,38.2z M54.6,36.4
	c0,0.2,0,1,0,1.2c0,0,0,0.1,0,0.1c0,0,0.1,0,0.1,0c0.2,0,0.5,0,0.7,0c0.1,0,0.2,0,0.3,0c0.1,0,0.3-0.1,0.3-0.2
	c0.2-0.3,0.1-0.8-0.3-1c-0.1,0-0.2,0-0.3,0C55.1,36.4,54.8,36.4,54.6,36.4z"/>
<path fill-rule="evenodd" clip-rule="evenodd" fill="#6E6F72" d="M-0.1,36.4c0-0.1,0-0.3,0-0.4c0.1,0,0.1,0,0.2,0c0.8,0,1.5,0,2.3,0
	c0.2,0,0.5,0,0.7,0.1c0.4,0.1,0.6,0.4,0.7,0.7c0.1,0.5-0.1,0.8-0.6,1c-0.1,0-0.1,0.1-0.2,0.1c-0.1,0-0.1,0-0.2,0
	c0.1,0,0.1,0,0.1,0.1c0.1,0.1,0.3,0.1,0.4,0.2c0.1,0.1,0.2,0.2,0.2,0.4c0,0.2,0,0.4,0,0.6c0,0.1,0,0.2,0.1,0.3
	c0,0.1,0.1,0.1,0.2,0.1c0.1,0,0.1,0,0.1-0.1c0,0,0-0.1,0-0.1c0-0.1,0-0.2,0-0.3c0,0,0-0.1,0-0.1c0.1,0,0.3,0,0.4,0
	c0,0.3,0,0.6,0,0.8C4.1,40,4,40.1,3.7,40.2c-0.1,0-0.3,0-0.5,0c-0.3,0-0.5-0.2-0.6-0.6c0,0,0-0.1,0-0.1c0-0.2,0-0.4,0-0.6
	c0-0.1,0-0.2-0.1-0.4c-0.1-0.2-0.2-0.3-0.4-0.3c-0.1,0-0.2,0-0.4,0c-0.1,0-0.2,0-0.3,0c0,0.1,0,0.1,0,0.1c0,0.3,0,0.6,0,0.9
	c0,0.1,0,0.1,0,0.2c0,0.2,0.1,0.3,0.3,0.3c0.1,0,0.1,0,0.2,0c0,0,0.1,0,0.2,0c0,0.1,0,0.2,0,0.4c-0.2,0-1.3,0-2,0c0,0-0.1,0-0.1,0
	c0-0.1,0-0.2,0-0.4c0,0,0.1,0,0.1,0c0.1,0,0.2,0,0.3,0c0.2,0,0.3-0.1,0.3-0.3c0,0,0-0.1,0-0.1c0-0.8,0-1.6,0-2.4c0,0,0-0.1,0-0.1
	c0-0.1-0.1-0.3-0.3-0.3c-0.1,0-0.2,0-0.3,0C0,36.4,0,36.4-0.1,36.4z M1.5,37.7C1.5,37.7,1.5,37.7,1.5,37.7c0.3,0,0.5,0,0.8,0
	c0.1,0,0.2,0,0.3-0.1c0.1,0,0.2-0.1,0.3-0.2c0.2-0.3,0.1-0.7-0.1-0.8c-0.1-0.1-0.3-0.2-0.4-0.2c-0.3,0-0.5,0-0.8,0c0,0-0.1,0-0.1,0
	c0,0.1,0,0.1,0,0.2C1.4,36.9,1.4,37.3,1.5,37.7C1.4,37.7,1.4,37.7,1.5,37.7z"/>
<path fill-rule="evenodd" clip-rule="evenodd" fill="#6E6F72" d="M65,40.1c-0.2,0-3.8,0-4,0c0-0.1,0-0.2,0-0.4c0,0,0.1,0,0.1,0
	c0.1,0,0.2,0,0.3,0c0.1,0,0.2-0.1,0.2-0.2c0,0,0-0.1,0-0.1c0-0.8,0-1.7,0-2.5c0-0.3,0-0.3-0.3-0.3c-0.1,0-0.1,0-0.2,0
	c-0.1,0-0.1,0-0.2,0c0-0.1,0-0.3,0-0.4c0.1-0.1,0.1,0,0.2,0c1,0,2,0,2.9,0c0.2,0,0.4,0,0.7,0c0.1,0,0.1,0,0.2,0c0,0,0,0.1,0,0.1
	c0,0.5,0,1,0,1.5c0,0,0,0.1,0,0.1c0,0-0.1,0-0.1,0c-0.1,0-0.2,0-0.3,0c-0.1-0.1,0-0.2,0-0.3c0-0.1,0-0.2,0-0.3
	c-0.1-0.3-0.3-0.5-0.6-0.6c-0.1,0-0.2,0-0.4,0c-0.3,0-0.6,0-1,0c0,0-0.1,0-0.1,0c0,0.1,0,0.2,0,0.3c0,0.1,0,0.2,0,0.3
	c0,0.1,0,0.2,0,0.3c0,0.1,0,0.2,0,0.3c0.2,0,0.4,0,0.5,0c0.1,0,0.2-0.1,0.3-0.2c0-0.1,0-0.2,0-0.3c0-0.1,0-0.2,0-0.2
	c0.1,0,0.2,0,0.4,0c0,0,0,0.1,0,0.1c0,0.6,0,1.3,0,1.9c0,0,0,0.1,0,0.1c-0.1,0-0.2,0-0.4,0c0,0,0-0.1,0-0.1c0-0.1,0-0.2,0-0.3
	c0-0.3-0.2-0.5-0.5-0.5c-0.1,0-0.1,0-0.2,0c-0.1,0-0.1,0-0.2,0c0,0,0,0,0,0.1c0,0.4,0,0.9,0,1.3c0,0,0,0.1,0,0.1c0.1,0,0.1,0,0.1,0
	c0.4,0,0.8,0,1.2,0c0,0,0,0,0.1,0c0.3,0,0.5-0.2,0.6-0.4c0-0.1,0.1-0.3,0.1-0.4c0-0.1,0-0.3,0-0.4c0,0,0-0.1,0-0.1
	c0.1,0,0.3,0,0.4,0c0,0.1,0,0.1,0,0.1c0,0.5,0,1,0,1.5C65,40,65,40,65,40.1z"/>
<path fill-rule="evenodd" clip-rule="evenodd" fill="#6E6F72" d="M7.9,36.4c0-0.1,0-0.3,0-0.4c0,0,0,0,0,0c0,0,0,0,0,0
	c1.3,0,2.5,0,3.8,0c0,0,0.1,0,0.1,0c0,0,0,0,0,0c0,0,0,0,0,0c0,0.5,0,1,0,1.5c0,0,0,0.1,0,0.1c-0.2,0-0.2,0-0.4,0c0-0.1,0-0.2,0-0.3
	c0-0.1,0-0.2,0-0.3c-0.1-0.3-0.3-0.4-0.5-0.5c-0.1,0-0.3,0-0.4-0.1c-0.3,0-0.7,0-1,0c0,0-0.1,0-0.1,0c0,0.2,0,1,0,1.3
	c0,0,0.1,0,0.1,0c0.1,0,0.2,0,0.3,0c0.2,0,0.3-0.1,0.4-0.3c0-0.1,0-0.1,0-0.2c0-0.1,0-0.2,0-0.2c0.2,0,0.2,0,0.4,0
	c0,0.2,0,0.4,0,0.7c0,0.2,0,0.5,0,0.7c0,0.2,0,0.4,0,0.7c-0.1,0-0.3,0-0.4,0c0-0.1,0-0.1,0-0.2c0-0.1,0-0.2,0-0.2
	c0-0.2-0.1-0.3-0.3-0.4c-0.1,0-0.1,0-0.2,0c-0.1,0-0.2-0.1-0.4,0c0,0,0,0,0,0.1c0,0.5,0,0.9,0,1.4c0,0,0,0,0,0.1c0,0,0.1,0,0.1,0
	c0.4,0,0.8,0,1.2,0c0.1,0,0.2,0,0.3-0.1c0.1-0.1,0.2-0.1,0.3-0.3c0.1-0.2,0.1-0.3,0.1-0.5c0-0.2,0-0.3,0-0.5c0.1-0.1,0.3,0,0.4,0
	c0,0,0,0.1,0,0.1c0,0.5,0,1.1,0,1.6c0,0,0,0,0,0.1c-0.1,0.1-0.1,0-0.2,0c-0.3,0-0.7,0-1,0c-0.8,0-1.7,0-2.5,0c-0.1,0-0.2,0-0.2,0
	c-0.1-0.1,0-0.3,0-0.4c0.1,0,0.1,0,0.1,0c0.1,0,0.2,0,0.3,0c0.2,0,0.3-0.1,0.3-0.3c0,0,0-0.1,0-0.1c0-0.8,0-1.7,0-2.5
	c0,0,0-0.1,0-0.2c0-0.1-0.1-0.2-0.2-0.2C8.3,36.4,8.1,36.4,7.9,36.4z"/>
<path fill-rule="evenodd" clip-rule="evenodd" fill="#6E6F72" d="M45.1,36.4c0-0.1,0-0.3,0-0.4c0,0,0.1,0,0.1,0c1.3,0,2.5,0,3.8,0
	c0,0,0.1,0,0.1,0c0,0,0,0,0,0c0,0,0,0,0,0c0,0.5,0,1,0,1.5c0,0,0,0,0,0.1c-0.1,0-0.2,0-0.4,0c0-0.1,0-0.2,0-0.3c0-0.1,0-0.2,0-0.3
	c-0.1-0.3-0.3-0.5-0.6-0.5c-0.1,0-0.3,0-0.4,0c-0.3,0-0.7,0-1,0c0,0-0.1,0-0.1,0c0,0.2,0,0.4,0,0.7c0,0.2,0,0.4,0,0.6
	c0.1,0,0.4,0,0.5,0c0.2,0,0.3-0.1,0.3-0.3c0-0.1,0-0.1,0-0.2c0-0.1,0-0.2,0-0.2c0.1,0,0.1,0,0.2,0c0.1,0,0.1,0,0.2,0
	c0,0,0,0.1,0,0.1c0,0.6,0,1.7,0,1.9c-0.1,0-0.1,0-0.2,0c-0.1,0-0.1,0-0.2,0c0-0.1,0-0.2,0-0.3c0-0.1,0-0.2-0.1-0.3
	c-0.1-0.1-0.2-0.2-0.3-0.3c-0.1,0-0.3,0-0.4,0c0,0-0.1,0-0.1,0c0,0,0,0,0,0.1c0,0.5,0,0.9,0,1.4c0,0,0,0,0,0.1c0,0,0.1,0,0.1,0
	c0.4,0,0.8,0,1.2,0c0.2,0,0.3-0.1,0.5-0.1c0.1-0.1,0.2-0.2,0.2-0.3c0-0.1,0.1-0.3,0.1-0.4c0-0.2,0-0.3,0-0.5c0.2,0,0.3,0,0.4,0
	c0,0.2,0,1.5,0,1.8c0,0-0.1,0-0.1,0c-0.1,0-0.1,0-0.2,0c-1.1,0-2.3,0-3.4,0c-0.1,0-0.2,0-0.2,0c0-0.1,0-0.3,0-0.4c0.1,0,0.1,0,0.1,0
	c0.1,0,0.2,0,0.3,0c0.2,0,0.2-0.1,0.2-0.2c0,0,0-0.1,0-0.1c0-0.8,0-1.7,0-2.5c0-0.1,0-0.1,0-0.2c0-0.1-0.1-0.2-0.2-0.2
	c-0.1,0-0.2,0-0.3,0C45.2,36.4,45.1,36.4,45.1,36.4z"/>
<path fill-rule="evenodd" clip-rule="evenodd" fill="#6E6F72" d="M69.1,40.1c0-0.1,0-0.2,0-0.4c0.1,0,0.2,0,0.3,0
	c0.1,0,0.2,0,0.2-0.1c0.1,0,0.1-0.1,0.1-0.2c0,0,0-0.1,0-0.1c0-0.8,0-1.6,0-2.4c0-0.1,0-0.1,0-0.2c0-0.1-0.1-0.2-0.2-0.2
	c-0.1,0-0.2,0-0.3,0c0,0-0.1,0-0.1,0c0-0.1,0-0.3,0-0.4c0,0,0.1,0,0.1,0c0.7,0,1.5,0,2.2,0c0.2,0,0.4,0,0.6,0
	c0.4,0.1,0.8,0.3,1.1,0.7c0.2,0.3,0.3,0.6,0.3,0.9c0,0.2,0,0.3,0,0.5c0,0.3,0,0.6-0.2,0.9c-0.2,0.5-0.5,0.8-1.1,1
	c-0.1,0-0.3,0.1-0.4,0.1c-0.9,0-1.7,0-2.6,0C69.2,40.1,69.2,40.1,69.1,40.1z M70.6,36.4c0,0.1,0,0.2,0,0.2c0,0.6,0,1.2,0,1.8
	c0,0.3,0,0.7,0,1.1c0,0,0,0.1,0,0.2c0.3,0,0.6,0,0.9,0c0.2,0,0.3-0.1,0.5-0.2c0.2-0.2,0.3-0.4,0.4-0.6c0.2-0.5,0.2-1,0.1-1.5
	c-0.1-0.3-0.2-0.5-0.4-0.8c-0.2-0.1-0.3-0.2-0.6-0.3C71.2,36.4,70.9,36.4,70.6,36.4z"/>
<path fill-rule="evenodd" clip-rule="evenodd" fill="#6E6F72" d="M19.2,36.4c0.1-0.1,0.1-0.3,0.2-0.4c0.1,0,0.1,0,0.2,0
	c0.1,0,0.1,0,0.2,0c0,0,0,0,0,0c0,0,0,0,0,0c0,0.5,0,1,0,1.5c0,0,0,0,0,0.1c-0.1,0-0.2,0-0.4,0c0,0,0-0.1,0-0.1
	c-0.1-0.3-0.2-0.6-0.5-0.8c-0.5-0.3-1.1-0.2-1.5,0.3c-0.2,0.3-0.3,0.6-0.3,0.9c0,0.2,0,0.3,0,0.5c0,0.3,0.1,0.6,0.3,0.9
	c0.2,0.4,0.6,0.5,1,0.4c0.2,0,0.3-0.1,0.5-0.2c0.2-0.1,0.3-0.3,0.2-0.5c0-0.1,0-0.2,0-0.3c0-0.2-0.1-0.3-0.2-0.3c-0.1,0-0.2,0-0.3,0
	c-0.1,0-0.1,0-0.2,0c0-0.1,0-0.2,0-0.2c0,0,0-0.1,0-0.1c0.2,0,1.9,0,2.2,0c0,0.1,0,0.1,0,0.2c0,0.1,0,0.1,0,0.2c0,0-0.1,0-0.1,0
	c-0.1,0-0.1,0-0.2,0c-0.2,0-0.3,0.1-0.3,0.3c0,0.1,0,0.2,0,0.3c0,0.3,0,0.6,0,0.9c0,0.1,0,0.1,0,0.2c-0.1,0-0.2,0-0.4,0
	c-0.1-0.1-0.1-0.2-0.2-0.3c-0.1,0-0.1,0-0.1,0c-0.2,0.2-0.5,0.3-0.8,0.4c-0.2,0-0.4,0-0.6,0c-0.6-0.1-1.1-0.4-1.4-0.9
	c-0.2-0.3-0.3-0.7-0.3-1c0-0.4,0-0.7,0.1-1c0.2-0.7,0.7-1.1,1.4-1.2c0.4-0.1,0.8,0,1.2,0.2C18.9,36.2,19,36.3,19.2,36.4z"/>
<path fill-rule="evenodd" clip-rule="evenodd" fill="#6E6F72" d="M30.8,39.7c-0.1,0.1-0.1,0.2-0.1,0.3c-0.1,0-0.3,0-0.5,0
	c0,0,0-0.1,0-0.1c0-0.8,0-1.4,0-1.6c0,0,0.1,0,0.1,0c0.1,0,0.2,0,0.3,0c0,0.1,0.1,0.3,0.1,0.4c0.2,0.4,0.5,0.7,0.9,0.8
	c0.3,0.1,0.6,0.1,0.9,0c0.1,0,0.2-0.1,0.3-0.2c0.2-0.2,0.2-0.5,0-0.6c-0.1-0.1-0.2-0.2-0.3-0.2c-0.3-0.1-0.5-0.1-0.8-0.2
	c-0.2,0-0.3-0.1-0.5-0.1c-0.2-0.1-0.4-0.1-0.6-0.2c-0.3-0.2-0.5-0.5-0.5-0.8c0-0.2,0-0.4,0.1-0.6c0.2-0.4,0.4-0.6,0.8-0.7
	c0.6-0.2,1.2-0.1,1.7,0.3c0,0,0.1,0.1,0.2,0.1c0-0.1,0.1-0.3,0.1-0.4c0.1,0,0.2,0,0.3,0c0,0,0,0.1,0,0.1c0,0.4,0,0.9,0,1.3
	c0,0,0,0.1,0,0.1c-0.1,0-0.3,0-0.4,0c0-0.1-0.1-0.1-0.1-0.2c-0.1-0.2-0.2-0.5-0.4-0.6c-0.2-0.2-0.5-0.3-0.8-0.3c-0.2,0-0.3,0-0.5,0
	c0,0-0.1,0-0.1,0c-0.2,0.1-0.3,0.5-0.1,0.7c0.1,0.1,0.3,0.2,0.4,0.2c0.3,0.1,0.7,0.2,1,0.2c0.2,0.1,0.5,0.1,0.7,0.3
	c0.3,0.2,0.5,0.5,0.5,0.9c0,0.6-0.4,1.1-0.9,1.2c-0.5,0.1-0.9,0.1-1.4-0.1c-0.1-0.1-0.3-0.1-0.4-0.2C30.9,39.8,30.8,39.8,30.8,39.7z
	"/>
<path fill-rule="evenodd" clip-rule="evenodd" fill="#6E6F72" d="M38.9,36.4c-0.1,0-0.2,0-0.3,0c-0.3,0-0.5,0.2-0.6,0.4
	c-0.1,0.1-0.1,0.3-0.1,0.5c0,0.1,0,0.2,0,0.3c-0.1,0-0.3,0-0.4,0c0,0,0-0.1,0-0.1c0-0.5,0-0.9,0-1.4c0,0,0-0.1,0-0.1c0,0,0,0,0,0
	c0,0,0,0,0,0c1.2,0,2.4,0,3.6,0c0,0,0.1,0,0.1,0c0,0,0,0.1,0,0.1c0,0.5,0,0.9,0,1.4c0,0,0,0.1,0,0.1c-0.1,0-0.1,0-0.2,0
	c-0.1,0-0.1,0-0.2,0c-0.1-0.1,0-0.2,0-0.2c0-0.2-0.1-0.4-0.1-0.5c-0.1-0.3-0.4-0.4-0.6-0.4c-0.1,0-0.2,0-0.2,0c0,0,0,0.1,0,0.1
	c0,0.2,0,0.3,0,0.5c0,0.7,0,1.5,0,2.2c0,0.1,0,0.2,0,0.2c0,0.2,0.1,0.3,0.3,0.3c0.1,0,0.2,0,0.4,0c0.1,0,0.1,0,0.2,0
	c0,0.1,0,0.3,0,0.4c-0.2,0-1.6,0-2.4,0c0,0-0.1,0-0.1,0c0-0.1,0-0.2,0-0.3c0-0.1,0.1,0,0.1,0c0.2,0,0.3,0,0.5,0
	c0.2,0,0.3-0.1,0.3-0.2c0,0,0-0.1,0-0.1c0-0.9,0-1.8,0-2.7C38.9,36.5,38.9,36.5,38.9,36.4z"/>
<path fill-rule="evenodd" clip-rule="evenodd" fill="#6E6F72" d="M24.2,39.7c0.1,0,0.3,0,0.4,0c0.1,0,0.2-0.1,0.3-0.2
	c0,0,0-0.1,0-0.1c0,0,0-0.1,0-0.1c0-0.8,0-1.6,0-2.5c0-0.3-0.1-0.4-0.4-0.4c-0.1,0-0.1,0-0.2,0c0,0-0.1,0-0.1,0c0-0.1,0-0.1,0-0.2
	c0-0.1,0-0.1,0-0.2c0.2,0,1.9,0,2.1,0c0,0.2,0,0.2,0,0.4c-0.1,0-0.2,0-0.3,0c0,0-0.1,0-0.1,0c-0.1,0-0.1,0.1-0.2,0.2
	c0,0.1,0,0.2,0,0.3c0,0.7,0,1.5,0,2.2c0,0.1,0,0.2,0,0.3c0,0.1,0.1,0.2,0.3,0.2c0.1,0,0.2,0,0.2,0c0,0,0.1,0,0.2,0
	c0,0.1,0,0.3,0,0.4c-0.1,0-0.1,0-0.2,0c-1,0-1.8,0-2,0c0-0.1,0-0.1,0-0.2C24.2,39.8,24.2,39.8,24.2,39.7z"/>
<path fill-rule="evenodd" clip-rule="evenodd" fill="#6E6F72" d="M37.5,25.4c0,0.4-0.1,0.8-0.4,1c-0.3,0.3-0.8,0.3-1,0.1
	c-0.2-0.1-0.3-0.3-0.4-0.5c-0.1-0.4-0.1-0.8,0-1.1c0.1-0.2,0.3-0.4,0.5-0.5c0.4-0.1,0.7-0.1,1,0.3C37.4,24.8,37.5,25.2,37.5,25.4z"
	/>
<path fill-rule="evenodd" clip-rule="evenodd" fill="#6E6F72" d="M37.4,30.4c0,0.2,0,0.3-0.1,0.5c-0.1,0.2-0.2,0.4-0.4,0.5
	c-0.3,0.3-0.9,0.2-1.2-0.2c-0.2-0.2-0.3-0.5-0.3-0.8c0-0.3,0.1-0.6,0.3-0.9c0.3-0.4,0.9-0.5,1.3-0.1C37.3,29.7,37.4,30,37.4,30.4z"
	/>
</svg>
