<?xml version="1.0" encoding="utf-8"?>
<!-- Generator: Adobe Illustrator 17.1.0, SVG Export Plug-In . SVG Version: 6.00 Build 0)  -->
<!DOCTYPE svg PUBLIC "-//W3C//DTD SVG 1.1//EN" "http://www.w3.org/Graphics/SVG/1.1/DTD/svg11.dtd">
<svg version="1.1" id="Layer_1" xmlns="http://www.w3.org/2000/svg" xmlns:xlink="http://www.w3.org/1999/xlink" x="0px" y="0px"
	 viewBox="0 0 33 33" enable-background="new 0 0 33 33" xml:space="preserve">
<g>
	<path fill="#BABBBD" d="M17.5,25.6l-1.9-4.5l-3.8,3.1L11.7,5.5l13.4,13l-4.8,0.6l1.9,4.5L17.5,25.6z M16.4,17.9l2.2,5.1l1-0.4
		l-2.2-5.1l3.3-0.4l-7-6.8l0,9.7L16.4,17.9z"/>
</g>
<g>
	<path fill="#BABBBD" d="M16.4,32.9c-9.1,0-16.5-7.4-16.5-16.5C-0.1,7.4,7.3,0,16.4,0c9.1,0,16.5,7.4,16.5,16.5
		C32.8,25.5,25.4,32.9,16.4,32.9z M16.4,2C8.4,2,1.9,8.5,1.9,16.4c0,8,6.5,14.5,14.5,14.5s14.5-6.5,14.5-14.5
		C30.8,8.5,24.3,2,16.4,2z"/>
</g>
</svg>
