<?xml version="1.0" encoding="utf-8"?>
<!-- Generator: Adobe Illustrator 17.1.0, SVG Export Plug-In . SVG Version: 6.00 Build 0)  -->
<!DOCTYPE svg PUBLIC "-//W3C//DTD SVG 1.1//EN" "http://www.w3.org/Graphics/SVG/1.1/DTD/svg11.dtd">
<svg version="1.1" id="Layer_1" xmlns="http://www.w3.org/2000/svg" xmlns:xlink="http://www.w3.org/1999/xlink" x="0px" y="0px"
	 viewBox="0 0 108.9 13.6" enable-background="new 0 0 108.9 13.6" xml:space="preserve">
<path fill-rule="evenodd" clip-rule="evenodd" fill="#6E6F72" d="M10.7,0.1c1.3,0,2.6,0,3.8,0c1.9,0,3.5,0.6,4.8,1.9
	c1.1,1,1.7,2.3,2,3.8c0.2,1.4,0.1,2.7-0.6,3.9c-1.1,2.1-2.8,3.4-5.2,3.8c-0.3,0-0.7,0.1-1,0.1c-2.6,0-5.2,0-7.8,0
	c-3,0-5.8-2-6.5-5.1C-0.4,6.1,0.2,4,2,2.1c1.3-1.3,2.9-2,4.7-2C8,0.1,9.4,0.1,10.7,0.1C10.7,0.1,10.7,0.1,10.7,0.1z M10.6,11.2
	L10.6,11.2c1.3,0,2.6,0,3.9,0c0.4,0,0.7-0.1,1.1-0.1c1.9-0.5,3.4-2.3,3.2-4.5c-0.1-1.7-1-2.8-2.4-3.6c-0.7-0.4-1.5-0.5-2.4-0.5
	c-2.2,0-4.5,0-6.7,0c-0.4,0-0.8,0-1.1,0.1c-1,0.2-1.8,0.6-2.5,1.4C2.3,5.4,2.2,7.8,3.3,9.4c0.9,1.2,2.1,1.9,3.6,1.9
	C8.2,11.3,9.4,11.2,10.6,11.2z"/>
<path fill-rule="evenodd" clip-rule="evenodd" fill="#6E6F72" d="M105,11.3c-0.5,0.8-1,1.6-1.5,2.4c-0.1,0-0.2,0-0.4,0
	c-2.6,0-5.2,0-7.8,0c-1.5,0-2.9-0.5-4.1-1.4c-1.2-0.9-2-2.2-2.4-3.6c-0.9-3.3,1-6.8,4.1-7.9c0.8-0.3,1.5-0.4,2.4-0.4c3,0,6,0,9,0
	c0.1,0,0.2,0,0.4,0c-0.1,0.1-0.1,0.2-0.2,0.3c-0.3,0.5-0.7,1-1,1.5c-0.3,0.5-0.2,0.4-0.7,0.4c-2.3,0-4.5,0-6.8,0
	c-0.7,0-1.4,0.1-2.1,0.4c-1.2,0.6-2,1.5-2.5,2.8c0.1,0.1,0.3,0.1,0.5,0.1c3.2,0,6.3,0,9.5,0c0.9,0,1.7,0,2.6,0
	c-0.1,0.2-0.2,0.4-0.3,0.6c-0.3,0.5-0.6,1-0.9,1.5c-0.2,0.3-0.3,0.3-0.7,0.3c-3.4,0-6.8,0-10.2,0c-0.2,0-0.3,0-0.5,0
	c0.3,1,0.9,1.8,1.7,2.4c0.8,0.5,1.6,0.8,2.6,0.8c2.9,0,5.9,0,8.8,0C104.6,11.3,104.8,11.3,105,11.3z"/>
<path fill-rule="evenodd" clip-rule="evenodd" fill="#6E6F72" d="M26.7,6.9c1.3,0,2.4,0,3.6,0c1.2,0,2.4,0,3.6,0
	c1.3,0,2.2-0.9,2.3-2.2c0-1.3-1.1-2.2-1.9-2.2c-0.4,0-0.7-0.1-1.1-0.1c-2.4,0-4.9,0-7.3,0c-0.2,0-0.3,0-0.5,0c0,3.7,0,7.4,0,11.1
	c-0.9,0-1.7,0-2.5,0c0-4.5,0-8.9,0-13.4c0.1,0,0.2,0,0.3,0c3.6,0,7.3,0,10.9,0c1.2,0,2.2,0.3,3.1,1.1c1,0.8,1.5,1.9,1.6,3.2
	c0.1,1.4-0.4,2.6-1.5,3.6c-0.7,0.7-1.6,1.1-2.6,1.2c-0.4,0-0.8,0-1.2,0.1c-0.1,0-0.2,0-0.4,0c1.7,1.5,3.4,2.9,5.2,4.3
	c-0.9,0-1.6,0-2.4,0c-0.1,0-0.1,0-0.2,0c-0.4,0-0.8,0.1-1.1-0.1c-0.3-0.1-0.6-0.5-0.9-0.7c-1.9-1.7-3.9-3.4-5.8-5.1
	C27.3,7.5,27.1,7.2,26.7,6.9z"/>
<path fill-rule="evenodd" clip-rule="evenodd" fill="#6E6F72" d="M53.9,11.2c-0.2,0-0.3,0-0.5,0c-2,0-4.1,0-6.1,0
	c-0.3,0-0.5-0.1-0.7-0.4c-0.3-0.6-0.7-1.1-1.1-1.7c-0.1-0.1-0.1-0.2-0.2-0.3c2.3,0,4.6,0,6.8,0c-0.1-0.3-3.1-5.3-3.6-5.9
	c-2.2,3.5-4.5,7.1-6.7,10.6c-1,0-2,0-3,0c0.4-0.7,0.9-1.4,1.3-2c2.2-3.5,4.4-6.9,6.7-10.4c0.1-0.2,0.3-0.4,0.5-0.6
	c0.9-0.9,2.3-0.6,2.9,0.3c0.8,1.2,1.6,2.4,2.3,3.7c1.9,3,3.8,6,5.7,8.9c0,0.1,0.1,0.1,0.1,0.2c-1,0-2,0-3,0
	C54.8,12.8,54.4,12,53.9,11.2z"/>
<path fill-rule="evenodd" clip-rule="evenodd" fill="#6E6F72" d="M73.3,11.3c-0.5,0.8-1,1.6-1.5,2.4c-0.1,0-0.2,0-0.4,0
	c-2.6,0-5.1,0-7.7,0c-1.9,0-3.6-0.8-4.9-2.2c-1-1-1.5-2.2-1.7-3.6c-0.2-1.9,0.2-3.6,1.4-5.1c0.9-1.2,2.1-1.9,3.5-2.3
	c0.5-0.1,1-0.2,1.5-0.2c3.1,0,6.1,0,9.2,0c0.1,0,0.2,0,0.4,0c-0.5,0.8-1,1.5-1.5,2.3c-0.2,0-0.3,0-0.5,0c-2.3,0-4.5,0-6.8,0
	c-0.5,0-0.9,0-1.4,0.1c-1.8,0.4-3.1,1.9-3.3,3.7c-0.3,2.2,1.1,4.3,3.2,4.8c0.4,0.1,0.9,0.1,1.3,0.1c2.9,0,5.8,0,8.7,0
	C73,11.3,73.1,11.3,73.3,11.3z"/>
<path fill-rule="evenodd" clip-rule="evenodd" fill="#6E6F72" d="M74.6,0.2c0.9,0,1.7,0,2.5,0c0.1,0.3,0,0.7,0,1c0,0.3,0,0.7,0,1
	c0,0.3,0,0.7,0,1s0,0.7,0,1c0,0.3,0,0.7,0,1c0,0.3,0,0.7,0,1c0,0.3,0,0.7,0,1c0,0.3,0,0.7,0,1c0,0.3,0,0.7,0,1c0,0.3,0,0.7,0,1
	c0,0.3,0,0.7,0,1c4,0,8,0,12.1,0c0,0.1-0.1,0.2-0.1,0.3c-0.4,0.6-0.8,1.3-1.2,1.9c-0.1,0.1-0.2,0.2-0.4,0.2c-0.1,0-0.1,0-0.2,0
	c-3.8,0-7.5,0-11.3,0c-0.3,0-0.6,0-0.9-0.2c-0.3-0.2-0.5-0.5-0.5-1c0-0.1,0-0.3,0-0.4c0-3.8,0-7.6,0-11.4
	C74.6,0.5,74.6,0.3,74.6,0.2z"/>
<path fill-rule="evenodd" clip-rule="evenodd" fill="#6E6F72" d="M107.3,3c-0.7,0.1-1.5-0.6-1.5-1.5c0-1,0.8-1.5,1.5-1.5
	c0.8,0,1.5,0.7,1.5,1.5C108.8,2.5,108,3.1,107.3,3z M108.6,1.5c0-0.7-0.6-1.2-1.2-1.2c-0.6,0-1.2,0.6-1.2,1.2c0,0.7,0.6,1.2,1.2,1.2
	C108,2.8,108.6,2.2,108.6,1.5z"/>
<path fill-rule="evenodd" clip-rule="evenodd" fill="#6E6F72" d="M108,2.3c-0.2,0.1-0.3,0-0.4-0.1c0-0.1-0.1-0.2-0.2-0.3
	c-0.1-0.1-0.1-0.2-0.3-0.1c0,0.2,0,0.4,0,0.6c-0.1,0-0.2,0-0.2,0c0-0.5,0-1.1,0-1.7c0.2,0,0.4,0,0.6,0c0.2,0,0.4,0.1,0.5,0.3
	c0.1,0.2,0.1,0.4-0.1,0.6c0,0-0.1,0.1-0.1,0.1C107.8,1.9,107.9,2.1,108,2.3z M107.1,1.4c0.2,0,0.4,0.1,0.5-0.1c0-0.1,0-0.2,0-0.3
	c-0.1-0.1-0.3-0.2-0.5-0.1C107.1,1.1,107.1,1.2,107.1,1.4z"/>
</svg>
