<?xml version="1.0" encoding="utf-8"?>
<!-- Generator: Adobe Illustrator 17.1.0, SVG Export Plug-In . SVG Version: 6.00 Build 0)  -->
<!DOCTYPE svg PUBLIC "-//W3C//DTD SVG 1.1//EN" "http://www.w3.org/Graphics/SVG/1.1/DTD/svg11.dtd">
<svg version="1.1" id="Layer_1" xmlns="http://www.w3.org/2000/svg" xmlns:xlink="http://www.w3.org/1999/xlink" x="0px" y="0px"
	 viewBox="0 0 33 33" enable-background="new 0 0 33 33" xml:space="preserve">
<g>
	<path fill="#B9BBBD" d="M16.5,33C7.4,33,0,25.6,0,16.5C0,7.4,7.4,0,16.5,0C25.6,0,33,7.4,33,16.5C33,25.6,25.6,33,16.5,33z M16.5,2
		C8.5,2,2,8.5,2,16.5C2,24.5,8.5,31,16.5,31c8,0,14.5-6.5,14.5-14.5C31,8.5,24.5,2,16.5,2z"/>
</g>
<g>
	<path fill="#B9BBBD" d="M11.5,24.9V8.1l14.6,8.4L11.5,24.9z M13.5,11.5v9.9l8.6-5L13.5,11.5z"/>
</g>
</svg>
