<?xml version="1.0" encoding="utf-8"?>
<!-- Generator: Adobe Illustrator 17.1.0, SVG Export Plug-In . SVG Version: 6.00 Build 0)  -->
<!DOCTYPE svg PUBLIC "-//W3C//DTD SVG 1.1//EN" "http://www.w3.org/Graphics/SVG/1.1/DTD/svg11.dtd">
<svg version="1.1" id="Layer_1" xmlns="http://www.w3.org/2000/svg" xmlns:xlink="http://www.w3.org/1999/xlink" x="0px" y="0px"
	 viewBox="0 0 33 33" enable-background="new 0 0 33 33" xml:space="preserve">
<g>
	<path fill="#B9BBBD" d="M16.5,33C7.4,33,0,25.6,0,16.5C0,7.4,7.4,0,16.5,0C25.6,0,33,7.4,33,16.5C33,25.6,25.6,33,16.5,33z M16.5,2
		C8.5,2,2,8.5,2,16.5C2,24.5,8.5,31,16.5,31S31,24.5,31,16.5C31,8.5,24.5,2,16.5,2z"/>
</g>
<g>
	<g>
		<path fill="#B9BBBD" d="M24.7,20.6H8.2V7.9h16.5V20.6z M10.2,18.6h12.5V9.9H10.2V18.6z"/>
	</g>
	<g>
		<rect x="12.3" y="23.7" fill="#B9BBBD" width="8.3" height="2"/>
	</g>
	<g>
		<rect x="15.4" y="19.8" fill="#B9BBBD" width="2" height="4.4"/>
	</g>
</g>
</svg>
